<svg xmlns="http://www.w3.org/2000/svg" xmlns:xlink="http://www.w3.org/1999/xlink" width="1080" zoomAndPan="magnify" viewBox="0 0 810 809.999993" height="1080" preserveAspectRatio="xMidYMid meet" version="1.2"><defs><clipPath id="8381d5ec30"><path d="M 248.546875 200.023438 L 562.011719 200.023438 L 562.011719 388.144531 L 248.546875 388.144531 Z M 248.546875 200.023438 "/></clipPath><clipPath id="cd7c9b6446"><path d="M 359 200.023438 L 532 200.023438 L 532 319 L 359 319 Z M 359 200.023438 "/></clipPath><clipPath id="428b9b38f7"><path d="M 425.859375 284.035156 L 562.011719 284.035156 L 562.011719 372.582031 L 425.859375 372.582031 Z M 425.859375 284.035156 "/></clipPath><clipPath id="a68872a074"><path d="M 341.511719 462.335938 L 450.652344 462.335938 L 450.652344 516.523438 L 341.511719 516.523438 Z M 341.511719 462.335938 "/></clipPath><clipPath id="4f3beecb74"><path d="M 342.570312 497.390625 L 449.894531 497.390625 L 449.894531 516.523438 L 342.570312 516.523438 Z M 342.570312 497.390625 "/></clipPath></defs><g id="045c4b62c3"><rect x="0" width="810" y="0" height="809.999993" style="fill:#ffffff;fill-opacity:1;stroke:none;"/><rect x="0" width="810" y="0" height="809.999993" style="fill:#ffffff;fill-opacity:1;stroke:none;"/><path style=" stroke:none;fill-rule:nonzero;fill:#693e39;fill-opacity:1;" d="M 487.078125 378.367188 C 487.078125 378.367188 477.257812 380.222656 453.890625 389.011719 C 430.523438 397.796875 412.003906 412.257812 410.132812 417.011719 C 409.242188 419.269531 408.332031 440.394531 409.3125 453.152344 C 410.296875 465.914062 420.160156 495.945312 426.816406 499.28125 C 433.46875 502.621094 418.347656 507.722656 398.511719 508.902344 C 378.679688 510.078125 364.539062 503.402344 364.933594 502.226562 C 365.328125 501.046875 379.464844 482.597656 381.234375 455.3125 C 383 428.027344 371.015625 419.183594 364.925781 414.089844 C 353.347656 404.40625 322.46875 391.910156 310.613281 386.214844 C 298.753906 380.523438 283.402344 372.832031 283.226562 368.140625 C 283.046875 363.445312 290.507812 360.78125 290.507812 360.78125 C 290.507812 360.78125 300.535156 367.175781 308.285156 374.832031 C 316.035156 382.488281 338.652344 392.695312 338.539062 391.320312 C 338.421875 389.945312 322.824219 376.402344 322.082031 369.726562 C 321.339844 363.054688 332.726562 366.589844 332.726562 366.589844 C 332.726562 366.589844 336.085938 381.339844 345.296875 389.945312 C 356.851562 400.742188 376.585938 413.304688 377.140625 411.929688 C 377.699219 410.558594 359.832031 374.65625 359.4375 370.523438 C 359.042969 366.390625 367.171875 363.839844 368.605469 366.980469 C 370.039062 370.121094 380.476562 400.742188 383.996094 406.238281 C 387.515625 411.734375 382.4375 370.1875 382.550781 360.523438 C 382.664062 350.855469 388.6875 343.148438 392.519531 345.742188 C 396.351562 348.332031 395.972656 363.839844 396.261719 379.933594 C 396.550781 396.03125 395.261719 398.917969 396.648438 399.011719 C 399.105469 399.183594 412.003906 367.503906 415.679688 356.28125 C 418.59375 347.375 425.511719 355.132812 424.382812 361.253906 C 423.257812 367.371094 420.761719 372.046875 416.757812 382.878906 C 413.121094 392.710938 406.53125 402.082031 406.480469 404.335938 C 406.4375 406.335938 424.839844 389.007812 434.230469 366.980469 C 441.46875 350 444.355469 349.214844 447.75 351.71875 C 451.140625 354.21875 448.625 364.230469 443.324219 372.671875 C 438.023438 381.117188 426.042969 394.132812 427.335938 394.722656 C 428.632812 395.3125 447.410156 382.09375 449.960938 379.542969 C 452.515625 376.992188 464.03125 357.539062 466.851562 354.320312 C 469.667969 351.097656 471.238281 357.460938 468.128906 362.5625 C 465.015625 367.667969 455.464844 380.777344 455.464844 381.503906 C 455.464844 383.636719 477.085938 374.351562 482.839844 372.28125 C 488.59375 370.210938 488.09375 378.253906 487.078125 378.367188 "/><path style=" stroke:none;fill-rule:nonzero;fill:#4e2926;fill-opacity:1;" d="M 290.507812 360.78125 C 290.507812 360.78125 300.535156 367.175781 308.285156 374.832031 C 310.097656 376.621094 312.71875 378.546875 315.671875 380.433594 C 315.074219 381.042969 314.5625 381.78125 314.335938 382.683594 C 313.550781 385.824219 344.316406 396.816406 359.4375 405.976562 C 374.554688 415.136719 383.699219 420.109375 387.246094 437.644531 C 390.460938 453.554688 387.8125 499.535156 385.992188 508.628906 C 373.019531 507.316406 364.628906 503.136719 364.933594 502.226562 C 365.328125 501.046875 379.464844 482.597656 381.234375 455.3125 C 383 428.027344 371.015625 419.183594 364.925781 414.089844 C 353.347656 404.40625 322.46875 391.910156 310.613281 386.214844 C 298.753906 380.523438 283.402344 372.832031 283.226562 368.140625 C 283.046875 363.445312 290.507812 360.78125 290.507812 360.78125 "/><path style=" stroke:none;fill-rule:nonzero;fill:#4e2926;fill-opacity:1;" d="M 338.539062 391.320312 C 338.421875 389.945312 322.824219 376.402344 322.082031 369.726562 C 321.339844 363.054688 332.726562 366.589844 332.726562 366.589844 C 332.726562 366.589844 334.464844 374.144531 338.820312 381.601562 C 337.839844 381.488281 336.980469 381.738281 336.78125 382.878906 C 336.261719 385.824219 341.324219 391.929688 338.539062 391.320312 "/><path style=" stroke:none;fill-rule:nonzero;fill:#4e2926;fill-opacity:1;" d="M 369.070312 381.898438 C 368.664062 385.234375 378.679688 404.210938 379.660156 406.957031 C 380.644531 409.707031 379.464844 412.113281 377.140625 411.929688 C 377.699219 410.558594 359.832031 374.65625 359.4375 370.523438 C 359.042969 366.390625 367.171875 363.839844 368.605469 366.980469 C 369.191406 368.257812 371.269531 374.105469 373.765625 380.949219 C 371.550781 380.378906 369.277344 380.222656 369.070312 381.898438 "/><path style=" stroke:none;fill-rule:nonzero;fill:#4e2926;fill-opacity:1;" d="M 391.160156 369.074219 C 387.777344 371.953125 389.609375 397.207031 389.609375 400.613281 C 389.609375 404.015625 388.753906 413.464844 387.515625 413.4375 C 386.453125 413.410156 385.90625 412.570312 384.484375 406.722656 C 386.988281 407.390625 382.445312 369.675781 382.550781 360.523438 C 382.664062 350.855469 388.6875 343.148438 392.519531 345.742188 C 395.472656 347.738281 395.925781 357.414062 396.109375 369.113281 C 394.585938 368.214844 392.738281 367.730469 391.160156 369.074219 "/><path style=" stroke:none;fill-rule:nonzero;fill:#4e2926;fill-opacity:1;" d="M 396.648438 399.011719 C 399.105469 399.183594 412.003906 367.503906 415.679688 356.28125 C 418.59375 347.375 425.511719 355.132812 424.382812 361.253906 C 423.675781 365.097656 422.425781 368.371094 420.601562 372.957031 C 419.589844 371.824219 416.316406 368.027344 413.566406 371.953125 C 410.820312 375.878906 402.835938 397.207031 400.347656 400.085938 C 397.859375 402.96875 397.289062 401.609375 396.648438 399.011719 "/><path style=" stroke:none;fill-rule:nonzero;fill:#4e2926;fill-opacity:1;" d="M 434.230469 366.980469 C 441.46875 350 444.355469 349.214844 447.75 351.71875 C 451.140625 354.21875 448.625 364.230469 443.324219 372.671875 C 443.144531 372.960938 442.9375 373.265625 442.742188 373.5625 C 441.199219 371.90625 439.027344 371.335938 436.347656 373.457031 C 431.636719 377.1875 422.601562 393.285156 417.105469 398.777344 C 411.605469 404.277344 405.996094 405.933594 406.480469 404.335938 C 406.4375 406.335938 424.839844 389.007812 434.230469 366.980469 "/><path style=" stroke:none;fill-rule:nonzero;fill:#4e2926;fill-opacity:1;" d="M 449.292969 382.945312 C 445.890625 385.167969 428.535156 396.6875 427.335938 394.722656 C 428.632812 395.3125 447.410156 382.09375 449.964844 379.542969 C 452.515625 376.992188 464.03125 357.539062 466.851562 354.320312 C 469.667969 351.097656 471.238281 357.460938 468.128906 362.5625 C 466.714844 364.882812 463.96875 368.851562 461.398438 372.566406 C 459.738281 372.613281 458.292969 372.855469 457.558594 373.457031 C 455.070312 375.488281 452.695312 380.722656 449.292969 382.945312 "/><path style=" stroke:none;fill-rule:nonzero;fill:#4e2926;fill-opacity:1;" d="M 446.429688 387.65625 C 446.429688 387.132812 452.71875 383.46875 455.464844 381.503906 C 455.464844 383.636719 477.085938 374.351562 482.839844 372.28125 C 488.59375 370.210938 488.09375 378.253906 487.078125 378.367188 C 487.078125 378.367188 483.6875 379.011719 476.226562 381.296875 C 475.960938 379.828125 476.21875 379.152344 475.230469 378.953125 C 471.960938 378.285156 459.789062 382.695312 455.464844 384.390625 C 451.140625 386.085938 446.429688 388.179688 446.429688 387.65625 "/><path style=" stroke:none;fill-rule:nonzero;fill:#4e2926;fill-opacity:1;" d="M 387.246094 471.605469 C 387.246094 471.605469 390.070312 491.234375 392.519531 489.46875 C 394.972656 487.699219 395.40625 426.683594 396.648438 426.652344 C 397.25 426.636719 397.335938 439.019531 397.726562 451.191406 C 398.121094 463.359375 398.90625 495.355469 402.636719 504.972656 C 403.132812 506.253906 403.636719 507.402344 404.140625 508.453125 C 402.320312 508.632812 400.4375 508.785156 398.511719 508.902344 C 390.714844 509.363281 383.820312 508.605469 378.320312 507.453125 C 381.578125 499.300781 387.246094 471.605469 387.246094 471.605469 "/><path style=" stroke:none;fill-rule:nonzero;fill:#855649;fill-opacity:1;" d="M 402.761719 421.140625 C 404.023438 420.796875 403.582031 425.21875 404.519531 425.261719 C 405.550781 425.3125 406.195312 415.734375 408.59375 411.941406 C 410.132812 409.507812 431.007812 396.101562 438.984375 392.308594 C 438.992188 392.304688 447.019531 388.425781 455.953125 385.480469 C 464.886719 382.535156 469.914062 381.71875 469.078125 382.03125 C 462.921875 384.304688 444.84375 390.910156 437.273438 394.945312 C 428.261719 399.746094 411.71875 409.9375 409.511719 413.4375 C 406.453125 418.277344 406.339844 432.933594 406.453125 440.199219 C 406.566406 447.460938 408.925781 459.042969 407.894531 458.058594 C 406.863281 457.078125 405.300781 447.976562 404.582031 441.304688 C 403.863281 434.628906 403.816406 428.417969 403.03125 429.402344 C 402.246094 430.382812 402.886719 452.992188 407.996094 471.714844 C 412.476562 488.144531 417.167969 500.460938 415.597656 501.246094 C 414.027344 502.03125 409.902344 503.402344 408.59375 499.28125 C 407.289062 495.160156 401.785156 463.949219 401 447.722656 C 400.292969 433.0625 401.636719 421.449219 402.761719 421.140625 "/><path style=" stroke:none;fill-rule:nonzero;fill:#855649;fill-opacity:1;" d="M 456.902344 376.074219 C 456.902344 376.074219 455.003906 380.589844 453.890625 381.570312 C 452.777344 382.550781 445.90625 386.804688 445.578125 386.542969 C 445.25 386.28125 451.925781 382.03125 452.777344 380.984375 C 453.628906 379.933594 456.902344 374.699219 457.558594 374.441406 C 458.210938 374.179688 457.363281 375.027344 456.902344 376.074219 "/><path style=" stroke:none;fill-rule:nonzero;fill:#855649;fill-opacity:1;" d="M 437.855469 377.253906 C 437.855469 377.253906 429.203125 388.375 427.871094 390.273438 C 426.542969 392.171875 425.042969 394.863281 426.203125 395.640625 C 428.21875 396.988281 441.945312 388.386719 442.042969 389.597656 C 442.09375 390.257812 427.25 397.539062 424.828125 398.582031 C 422.40625 399.628906 413.894531 405.226562 413.371094 404.914062 C 412.847656 404.601562 419.203125 399.148438 421.359375 395.835938 C 423.269531 392.898438 432.28125 379.824219 437.265625 375.945312 C 440.554688 373.382812 440.527344 373.699219 437.855469 377.253906 "/><path style=" stroke:none;fill-rule:nonzero;fill:#855649;fill-opacity:1;" d="M 416.285156 377.785156 C 415.574219 379.464844 409.363281 392.628906 407.792969 395.769531 C 406.222656 398.910156 402.585938 405.40625 403.472656 407.808594 C 403.835938 408.800781 408.871094 404.929688 408.773438 406.632812 C 408.714844 407.644531 405.679688 409.671875 404.996094 413.4375 C 404.382812 416.785156 403.90625 419.691406 403.375 415.269531 C 403.03125 412.421875 403.070312 412.246094 402.144531 412.617188 C 399.789062 413.566406 399.757812 431.625 399.101562 430.972656 C 398.449219 430.316406 399.222656 408.785156 402.046875 402.898438 C 404.6875 397.398438 410.96875 382.671875 414.027344 376.976562 C 416.652344 372.082031 418.121094 373.457031 416.285156 377.785156 "/><path style=" stroke:none;fill-rule:nonzero;fill:#855649;fill-opacity:1;" d="M 393.632812 373.960938 C 393.636719 376.316406 393.949219 389.566406 393.964844 393.195312 C 393.980469 396.828125 393.691406 404.183594 393.398438 404.117188 C 393.109375 404.054688 392.464844 379.0625 392.523438 374.648438 C 392.582031 370.230469 393.628906 370.523438 393.632812 373.960938 "/><path style=" stroke:none;fill-rule:nonzero;fill:#855649;fill-opacity:1;" d="M 398.574219 404.179688 C 398.574219 404.179688 397.238281 411.734375 397.238281 415.367188 C 397.238281 419 396.550781 419.292969 396.109375 416.054688 C 395.664062 412.816406 396.109375 404.769531 396.109375 404.179688 C 396.109375 402.3125 398.832031 402.636719 398.574219 404.179688 "/><path style=" stroke:none;fill-rule:nonzero;fill:#855649;fill-opacity:1;" d="M 393.996094 408.203125 C 395.085938 410.164062 395.023438 425.476562 394.460938 434.113281 C 393.898438 442.75 393.863281 447.558594 393.242188 446.871094 C 392.621094 446.183594 393.199219 435.386719 392.027344 431.660156 C 390.855469 427.929688 389.972656 429.597656 390.167969 432.640625 C 390.363281 435.683594 392.714844 451.09375 392.519531 460.121094 C 392.328125 469.152344 391.910156 478.207031 391.230469 477.910156 C 390.550781 477.617188 391.445312 441.867188 387.8125 432.347656 C 384.179688 422.824219 382.804688 420.566406 377.796875 416.644531 C 372.789062 412.71875 359.335938 405.058594 353.640625 400.839844 C 347.945312 396.621094 338.519531 394.460938 334.101562 392.597656 C 329.683594 390.730469 328.40625 390.03125 328.605469 389.597656 C 328.800781 389.160156 331.296875 390.828125 335.988281 392.105469 C 340.679688 393.382812 342.941406 393.382812 342.546875 392.496094 C 342.152344 391.613281 338.816406 386.214844 338.914062 385.53125 C 339.011719 384.84375 339.699219 387.492188 345 392.300781 C 350.304688 397.109375 353.640625 399.074219 358.648438 402.214844 C 363.65625 405.355469 373.625 411.898438 378.941406 415.792969 C 384.398438 419.789062 386.402344 422.859375 387.191406 422.859375 C 387.632812 422.859375 386.832031 418.832031 385.464844 415.921875 C 384.414062 413.679688 382.421875 409.894531 382.933594 409.378906 C 383.324219 408.988281 386.167969 414.152344 387.777344 417.691406 C 389.402344 421.257812 389.675781 424.324219 390.660156 424.953125 C 391.382812 425.417969 390.757812 409.667969 390.757812 402.898438 C 390.757812 396.128906 390.167969 388.476562 390.757812 388.277344 C 391.425781 388.050781 391.988281 397.464844 392.277344 405.503906 C 392.507812 411.84375 391.96875 418.476562 392.6875 418.605469 C 393.242188 418.703125 393.582031 407.457031 393.996094 408.203125 "/><path style=" stroke:none;fill-rule:nonzero;fill:#855649;fill-opacity:1;" d="M 374.097656 386.804688 C 376.496094 391.851562 383.136719 407.417969 381.820312 407.285156 C 380.503906 407.15625 373.246094 389.117188 372.070312 386.554688 C 370.890625 383.992188 372.199219 382.816406 374.097656 386.804688 "/><g clip-rule="nonzero" clip-path="url(#8381d5ec30)"><path style=" stroke:none;fill-rule:nonzero;fill:#59ac34;fill-opacity:1;" d="M 257.832031 356.476562 C 257.832031 356.476562 253.5 359.425781 254.296875 362.164062 C 255.074219 364.921875 260.183594 363.929688 260.183594 363.929688 C 260.183594 363.929688 258.113281 371.828125 262.53125 376.03125 C 268.292969 381.542969 279.039062 375.324219 279.625 365.699219 C 279.625 365.699219 280.402344 373.753906 286.886719 374.335938 C 293.375 374.921875 295.722656 367.269531 295.722656 367.269531 C 295.722656 367.269531 296.113281 372.375 300.035156 372.179688 C 302.6875 372.039062 304.4375 370.0625 305.304688 368.773438 C 303.800781 371.492188 300.585938 378.539062 305.941406 380.429688 C 312.621094 382.78125 317.515625 372.765625 317.515625 372.765625 C 317.515625 372.765625 318.503906 376.101562 322.429688 376.898438 C 326.351562 377.675781 326.953125 370.414062 326.953125 370.414062 C 326.953125 370.414062 327.148438 380.75 334.023438 380.785156 C 340.898438 380.820312 341.871094 372.570312 341.871094 372.570312 C 341.871094 372.570312 342.664062 379.246094 347.367188 377.871094 C 352.085938 376.492188 352.28125 371.386719 352.28125 371.386719 C 352.28125 371.386719 354.628906 381.136719 361.117188 380.785156 C 367.601562 380.429688 367 372.570312 367 372.570312 C 367 372.570312 370.941406 378.0625 373.875 375.714844 C 376.828125 373.367188 375.644531 368.257812 375.644531 368.257812 C 375.644531 368.257812 380.628906 374.214844 384.480469 371.386719 C 389.128906 368.011719 385.398438 359.707031 385.101562 359.054688 C 385.417969 359.480469 388.546875 363.453125 391.640625 361.773438 C 394.890625 360.007812 395.878906 355.699219 395.878906 355.699219 C 395.878906 355.699219 396.464844 367.269531 402.753906 367.660156 C 409.027344 368.0625 410.019531 360.59375 410.019531 360.59375 C 410.019531 360.59375 413.75 367.464844 419.246094 361.96875 C 419.246094 361.96875 420.429688 370.414062 429.460938 370.21875 C 438.492188 370.027344 440.839844 361.191406 440.839844 361.191406 C 440.839844 361.191406 442.027344 368.84375 446.726562 366.882812 C 451.445312 364.921875 452.242188 359.234375 452.242188 359.234375 C 452.242188 359.234375 452.242188 368.453125 457.738281 370.027344 C 463.234375 371.597656 471.082031 364.320312 471.082031 364.320312 C 471.082031 364.320312 469.703125 367.851562 471.46875 371.386719 C 473.238281 374.921875 477.957031 371.597656 477.957031 371.597656 C 477.957031 371.597656 475.535156 378.664062 480.378906 381.015625 C 485.308594 383.398438 490.167969 377.535156 490.523438 377.109375 C 490.523438 377.410156 490.574219 383.769531 494.78125 384.546875 C 499.605469 385.429688 501.460938 381.015625 501.460938 381.015625 C 501.460938 381.015625 504.46875 389.652344 512.722656 387.886719 C 520.761719 386.15625 520.390625 377.515625 517.828125 374.726562 C 518.589844 375.46875 521.414062 377.851562 524.101562 376.015625 C 526.945312 374.054688 526.417969 370.75 526.277344 370.132812 C 526.523438 370.960938 528.21875 376.242188 532.9375 375.519531 C 538.046875 374.726562 536.863281 367.851562 536.863281 367.851562 C 536.863281 367.851562 544.160156 375.324219 549.109375 371.457031 C 554.625 367.144531 548.546875 360.132812 548.277344 359.832031 C 548.6875 360.007812 554.164062 362.410156 555.828125 358.824219 C 557.433594 355.382812 552.769531 353.332031 552.769531 353.332031 C 552.769531 353.332031 562.011719 354.445312 562.011719 346.652344 C 562.011719 340.1875 554.34375 339.800781 554.34375 339.800781 C 554.34375 339.800781 561.039062 334.621094 557.679688 329.78125 C 553.96875 324.410156 545.007812 327.75 544.375 327.996094 C 544.886719 327.644531 552.628906 322.363281 548.652344 317.996094 C 543.453125 312.328125 536.527344 318.40625 535.925781 318.953125 C 536.332031 318.40625 540.820312 312.363281 538.011719 309.289062 C 535.75 306.816406 531.171875 307.980469 528.097656 309.925781 C 528.855469 308.792969 529.335938 307.449219 528.820312 306.019531 C 527.175781 301.550781 522.953125 302.328125 522.351562 302.46875 C 523.09375 302.257812 529.492188 300.347656 528.484375 297.398438 C 527.441406 294.253906 523.128906 294.449219 523.128906 294.449219 C 523.128906 294.449219 532.9375 292.488281 531.367188 286.585938 C 529.792969 280.703125 521.363281 281.09375 521.363281 281.09375 C 521.363281 281.09375 529.210938 279.132812 526.257812 273.832031 C 523.519531 268.867188 517.476562 270.96875 516.714844 271.253906 C 517.421875 270.636719 523.855469 264.945312 519.597656 260.6875 C 515.265625 256.359375 505.582031 261.359375 504.714844 261.816406 C 505.226562 261.238281 509.785156 256.164062 506.816406 253.019531 C 503.847656 249.859375 499.09375 252.703125 498.617188 252.984375 C 499.199219 252.507812 505.066406 247.492188 501.125 242.828125 C 497.292969 238.253906 490.910156 245.742188 490.027344 246.820312 C 490.539062 245.988281 493.242188 241.414062 490.910156 239.101562 C 488.367188 236.539062 482.675781 239.101562 482.675781 239.101562 C 482.675781 239.101562 491.316406 228.5 485.414062 224.96875 C 479.53125 221.433594 475.605469 232.421875 475.21875 234.578125 C 475.21875 234.578125 475.410156 228.289062 469.316406 225.742188 C 463.234375 223.199219 458.515625 230.265625 458.515625 230.265625 C 458.515625 230.265625 462.246094 216.523438 456.746094 213.183594 C 451.605469 210.054688 446.125 218.269531 444.785156 223.535156 C 445.207031 221.167969 445.738281 215.53125 441.230469 215.53125 C 435.539062 215.53125 434.566406 222.015625 434.566406 222.015625 C 434.566406 222.015625 434.957031 205.921875 428.277344 204.738281 C 421.59375 203.554688 419.050781 210.234375 419.4375 215.53125 C 419.4375 215.53125 418.058594 206.894531 413.554688 207.496094 C 409.027344 208.078125 409.027344 212.988281 409.027344 212.988281 C 409.027344 212.988281 407.84375 200.023438 400.582031 200.023438 C 393.316406 200.023438 391.160156 208.464844 391.160156 208.464844 C 391.160156 208.464844 387.628906 204.542969 384.09375 205.320312 C 380.679688 206.082031 382.75 212.6875 382.890625 213.164062 C 382.449219 212.757812 374.125 205.410156 368.964844 208.660156 C 363.785156 211.910156 372.074219 222.28125 372.480469 222.777344 C 372.234375 222.652344 366.328125 219.507812 362.496094 222.015625 C 358.570312 224.558594 359.542969 231.238281 359.542969 231.238281 C 359.542969 231.238281 356.203125 218.09375 349.929688 220.441406 C 344.21875 222.582031 347.5625 231.945312 348.230469 233.675781 C 347.808594 232.722656 346.183594 229.773438 342.0625 230.265625 C 337.152344 230.847656 337.558594 236.152344 337.558594 236.152344 C 337.558594 236.152344 334.21875 225.9375 328.527344 226.523438 C 322.816406 227.121094 323.011719 236.730469 323.011719 236.730469 C 323.011719 236.730469 318.503906 233.394531 315.359375 234.769531 C 312.214844 236.152344 311.242188 241.0625 311.242188 241.0625 C 311.242188 241.0625 303.78125 231.433594 295.722656 234.578125 C 287.664062 237.722656 295.722656 248.320312 295.722656 248.320312 C 295.722656 248.320312 291.800781 246.945312 288.65625 250.863281 C 285.667969 254.59375 290.140625 258.355469 290.582031 258.710938 C 290.105469 258.410156 283.953125 254.789062 279.816406 259.308594 C 275.648438 263.867188 285.792969 270.246094 286.464844 270.667969 C 286.164062 270.546875 283.777344 269.660156 281.390625 271.675781 C 281.285156 271.765625 281.195312 271.851562 281.125 271.957031 C 279.144531 274.21875 282.769531 278.742188 282.769531 278.742188 C 282.769531 278.742188 276.867188 272.664062 272.941406 278.355469 C 269.144531 283.867188 276.582031 291.605469 277.042969 292.082031 C 276.972656 292.0625 276.726562 291.957031 276.726562 291.957031 L 276.546875 291.886719 L 275.984375 291.675781 C 274.234375 291.09375 270.839844 290.421875 269.40625 293.265625 C 267.550781 296.992188 271 300.5625 271.335938 300.914062 C 270.714844 300.753906 261.242188 298.15625 257.621094 303.28125 C 254.246094 308.085938 262.78125 312.238281 264.40625 312.964844 C 263.328125 312.558594 259.371094 311.375 256.84375 314.800781 C 253.890625 318.792969 260.378906 326.636719 260.378906 326.636719 C 260.378906 326.636719 252.917969 325.257812 250.355469 330.753906 C 247.8125 336.265625 257.425781 339.800781 257.425781 339.800781 C 257.425781 339.800781 249.382812 342.148438 248.589844 349.601562 C 247.8125 357.058594 257.832031 356.476562 257.832031 356.476562 "/></g><path style=" stroke:none;fill-rule:nonzero;fill:#68c52f;fill-opacity:1;" d="M 292.21875 238.757812 C 292.433594 237.03125 293.390625 235.488281 295.722656 234.578125 C 303.777344 231.4375 311.238281 241.054688 311.238281 241.054688 C 311.238281 241.054688 312.21875 236.148438 315.359375 234.773438 C 318.503906 233.398438 323.019531 236.738281 323.019531 236.738281 C 328.125 241.644531 327.195312 246.316406 327.195312 246.316406 C 327.195312 246.316406 332.640625 239.09375 338.539062 243.605469 C 344.433594 248.121094 335.550781 257.347656 335.550781 257.347656 C 335.550781 243.707031 323.019531 252.636719 323.019531 252.636719 C 323.019531 252.636719 323.5625 248.097656 320.675781 245.648438 C 314.378906 240.304688 309.667969 250.476562 309.667969 250.476562 C 309.667969 250.476562 307.582031 246.800781 303.472656 243.117188 C 295.703125 236.148438 292.476562 238.722656 292.21875 238.757812 "/><path style=" stroke:none;fill-rule:nonzero;fill:#428332;fill-opacity:1;" d="M 382.808594 342.796875 C 382.734375 342.394531 382.71875 342.144531 382.71875 342.144531 C 382.71875 342.144531 382.757812 342.386719 382.808594 342.796875 "/><path style=" stroke:none;fill-rule:nonzero;fill:#428332;fill-opacity:1;" d="M 257.429688 339.789062 C 257.429688 339.789062 247.808594 336.257812 250.363281 330.761719 C 252.914062 325.265625 260.378906 326.636719 260.378906 326.636719 C 260.378906 326.636719 253.898438 318.785156 256.84375 314.796875 C 259.574219 311.097656 263.980469 312.789062 264.613281 313.058594 C 263.761719 312.691406 254.058594 308.351562 257.628906 303.277344 C 258.675781 301.792969 260.222656 300.96875 261.898438 300.535156 C 260.277344 310.152344 281.441406 311.132812 281.441406 311.132812 C 281.441406 311.132812 277.636719 314.742188 281.441406 320.875 C 284.285156 325.460938 292.777344 324.871094 292.777344 324.871094 C 286.757812 331.28125 284.484375 338.660156 288.976562 342.480469 C 295.546875 348.070312 300.632812 342.34375 300.632812 342.34375 C 300.632812 342.34375 297.292969 349.015625 303.003906 352.746094 C 308.710938 356.476562 318.894531 348.230469 318.894531 348.230469 C 318.894531 348.230469 318.308594 357.457031 325.375 358.832031 C 332.445312 360.207031 336.960938 352.746094 336.960938 352.746094 C 336.960938 352.746094 337.945312 360.597656 344.03125 361.21875 C 350.121094 361.835938 353.457031 357.261719 353.457031 357.261719 L 363.667969 355.296875 C 363.667969 355.296875 367.792969 360.402344 375.253906 358.898438 C 383.863281 357.160156 383.164062 345.628906 382.808594 342.796875 C 383.117188 344.441406 384.425781 348.738281 389.785156 350 C 396.464844 351.570312 394.890625 340.773438 394.890625 340.773438 C 394.890625 340.773438 395.285156 344.304688 399.214844 345.375 C 403.140625 346.441406 402.355469 340.183594 402.355469 340.183594 C 402.355469 340.183594 406.085938 348.035156 412.171875 346.464844 C 418.261719 344.894531 417.082031 336.910156 417.082031 336.910156 L 428.667969 340.773438 C 428.667969 340.773438 431.222656 350.390625 438.878906 351.175781 C 446.539062 351.960938 445.949219 343.128906 445.949219 343.128906 C 445.949219 343.128906 453.25 355.585938 460.074219 347.035156 C 464.746094 358.480469 470.890625 346.859375 470.890625 346.859375 C 475.601562 352.550781 483.652344 346.859375 483.652344 346.859375 C 482.472656 354.90625 486.992188 358.832031 486.992188 358.832031 C 486.992188 358.832031 488.5625 362.953125 493.957031 366.878906 C 499.347656 370.804688 506.824219 361.578125 506.824219 361.578125 C 506.824219 361.578125 505.644531 368.84375 512.324219 370.214844 C 519 371.589844 518.410156 362.363281 518.410156 362.363281 C 518.410156 362.363281 518.804688 366.683594 522.925781 367.269531 C 527.050781 367.859375 526.070312 360.207031 526.070312 360.207031 C 526.070312 360.207031 527.835938 366.289062 530.195312 369.429688 C 532.550781 372.570312 536.492188 372.570312 536.492188 372.570312 C 535.96875 373.96875 534.941406 375.207031 532.945312 375.515625 C 527.835938 376.300781 526.265625 370.019531 526.265625 370.019531 C 526.265625 370.019531 527.246094 373.847656 524.105469 376.007812 C 520.964844 378.164062 517.625 374.535156 517.625 374.535156 C 520.375 377.085938 520.964844 386.117188 512.714844 387.882812 C 504.46875 389.648438 501.457031 381.011719 501.457031 381.011719 C 501.457031 381.011719 499.613281 385.425781 494.78125 384.546875 C 490.460938 383.761719 490.527344 377.085938 490.527344 377.085938 C 490.527344 377.085938 485.488281 383.496094 480.382812 381.011719 C 475.535156 378.65625 477.957031 371.589844 477.957031 371.589844 C 477.957031 371.589844 473.246094 374.929688 471.476562 371.394531 C 469.710938 367.859375 471.085938 364.328125 471.085938 364.328125 C 471.085938 364.328125 463.230469 371.589844 457.730469 370.019531 C 452.234375 368.449219 452.234375 359.222656 452.234375 359.222656 C 452.234375 359.222656 451.449219 364.917969 446.734375 366.878906 C 442.023438 368.84375 440.84375 361.1875 440.84375 361.1875 C 440.84375 361.1875 438.488281 370.019531 429.453125 370.214844 C 420.421875 370.414062 419.242188 361.972656 419.242188 361.972656 C 413.746094 367.46875 410.011719 360.597656 410.011719 360.597656 C 410.011719 360.597656 409.03125 368.058594 402.75 367.664062 C 396.464844 367.269531 395.875 355.691406 395.875 355.691406 C 395.875 355.691406 394.890625 360.007812 391.632812 361.773438 C 388.371094 363.542969 385.074219 359.027344 385.074219 359.027344 C 385.074219 359.027344 389.320312 367.871094 384.484375 371.394531 C 380.621094 374.207031 375.648438 368.253906 375.648438 368.253906 C 375.648438 368.253906 376.824219 373.359375 373.878906 375.710938 C 370.933594 378.066406 367.007812 372.570312 367.007812 372.570312 C 367.007812 372.570312 367.597656 380.421875 361.117188 380.78125 C 354.636719 381.140625 352.28125 371.394531 352.28125 371.394531 C 352.28125 371.394531 352.082031 376.496094 347.371094 377.871094 C 342.65625 379.246094 341.871094 372.570312 341.871094 372.570312 C 341.871094 372.570312 340.890625 380.816406 334.015625 380.78125 C 327.144531 380.75 326.949219 370.414062 326.949219 370.414062 C 326.949219 370.414062 326.359375 377.675781 322.429688 376.890625 C 318.503906 376.105469 317.519531 372.769531 317.519531 372.769531 C 317.519531 372.769531 312.613281 382.777344 305.933594 380.421875 C 300.585938 378.535156 303.804688 371.492188 305.296875 368.765625 C 304.429688 370.058594 302.683594 372.046875 300.042969 372.179688 C 296.117188 372.375 295.722656 367.269531 295.722656 367.269531 C 295.722656 367.269531 293.367188 374.929688 286.886719 374.339844 C 280.40625 373.75 279.621094 365.699219 279.621094 365.699219 C 279.03125 375.320312 268.296875 381.535156 262.535156 376.039062 C 258.117188 371.824219 260.179688 363.933594 260.179688 363.933594 C 260.179688 363.933594 255.074219 364.917969 254.289062 362.167969 C 253.503906 359.417969 257.824219 356.476562 257.824219 356.476562 C 257.824219 356.476562 247.808594 357.0625 248.59375 349.605469 C 249.378906 342.144531 257.429688 339.789062 257.429688 339.789062 "/><g clip-rule="nonzero" clip-path="url(#cd7c9b6446)"><path style=" stroke:none;fill-rule:nonzero;fill:#68c52f;fill-opacity:1;" d="M 362.492188 222.015625 C 366.417969 219.460938 372.507812 222.796875 372.507812 222.796875 C 372.507812 222.796875 363.667969 212.003906 368.972656 208.667969 C 374.273438 205.328125 382.914062 213.179688 382.914062 213.179688 C 382.914062 213.179688 380.558594 206.113281 384.09375 205.328125 C 387.628906 204.542969 391.160156 208.46875 391.160156 208.46875 C 391.160156 208.46875 393.320312 200.027344 400.585938 200.027344 C 407.851562 200.027344 409.03125 212.984375 409.03125 212.984375 C 409.03125 212.984375 409.03125 208.078125 413.546875 207.488281 C 418.066406 206.898438 419.4375 215.535156 419.4375 215.535156 C 419.046875 210.234375 421.597656 203.5625 428.277344 204.742188 C 434.953125 205.917969 434.558594 222.015625 434.558594 222.015625 C 434.558594 222.015625 435.542969 215.535156 441.238281 215.535156 C 445.738281 215.535156 445.210938 221.164062 444.789062 223.53125 C 446.117188 218.277344 451.605469 210.058594 456.75 213.179688 C 462.25 216.519531 458.519531 230.257812 458.519531 230.257812 C 458.519531 230.257812 463.230469 223.191406 469.316406 225.742188 C 475.40625 228.296875 475.210938 234.578125 475.210938 234.578125 C 475.601562 232.417969 479.53125 221.425781 485.421875 224.957031 C 491.3125 228.492188 482.671875 239.09375 482.671875 239.09375 C 482.671875 239.09375 488.367188 236.539062 490.917969 239.09375 C 493.472656 241.644531 489.9375 246.945312 489.9375 246.945312 C 489.9375 246.945312 497.003906 237.914062 501.132812 242.820312 C 505.253906 247.730469 498.578125 253.027344 498.578125 253.027344 C 498.578125 253.027344 503.683594 249.691406 506.824219 253.027344 C 509.96875 256.367188 504.664062 261.863281 504.664062 261.863281 C 504.664062 261.863281 515.074219 256.167969 519.589844 260.683594 C 524.105469 265.199219 516.644531 271.285156 516.644531 271.285156 C 516.644531 271.285156 523.320312 268.535156 526.265625 273.835938 C 529.210938 279.136719 521.355469 281.097656 521.355469 281.097656 C 521.355469 281.097656 529.800781 280.707031 531.371094 286.59375 C 532.945312 292.484375 523.125 294.445312 523.125 294.445312 C 523.125 294.445312 527.445312 294.25 528.492188 297.390625 C 529.539062 300.53125 522.273438 302.496094 522.273438 302.496094 C 522.273438 302.496094 527.050781 301.191406 528.820312 306.027344 C 529.335938 307.441406 528.859375 308.792969 528.109375 309.910156 C 522.078125 313.765625 516.386719 316.910156 509.972656 318.992188 L 503.09375 300.335938 C 503.09375 300.335938 507.609375 292.679688 502.113281 289.933594 C 496.613281 287.183594 491.113281 286.789062 491.113281 286.789062 C 491.113281 286.789062 499.953125 283.847656 496.808594 279.527344 C 493.667969 275.210938 486.992188 279.527344 486.992188 279.527344 C 486.992188 279.527344 491.113281 273.246094 488.171875 272.070312 C 485.222656 270.890625 480.511719 273.640625 480.511719 273.640625 C 480.511719 273.640625 488.5625 265.003906 482.082031 260.878906 C 475.601562 256.757812 472.460938 260.878906 472.460938 260.878906 C 472.460938 260.878906 472.261719 250.671875 464.015625 247.925781 C 455.769531 245.175781 448.3125 249.300781 448.3125 249.300781 C 448.3125 249.300781 453.609375 242.230469 449.484375 239.289062 C 445.359375 236.34375 440.058594 240.074219 440.058594 240.074219 C 440.058594 240.074219 441.628906 231.632812 438.292969 229.867188 C 434.953125 228.097656 432.007812 236.148438 432.007812 236.148438 C 432.007812 236.148438 431.191406 227.3125 425.90625 226.722656 C 420.617188 226.136719 418.851562 233.59375 418.851562 233.59375 C 418.851562 233.59375 419.4375 222.796875 411.78125 221.621094 C 404.121094 220.441406 401.175781 230.257812 401.175781 230.257812 C 401.175781 230.257812 398.625 220.050781 394.105469 220.25 C 389.589844 220.441406 389.394531 230.257812 389.394531 230.257812 C 389.394531 230.257812 385.621094 222.773438 379.773438 224.566406 C 374.863281 226.070312 374.664062 234.773438 374.664062 234.773438 C 374.664062 234.773438 368.578125 223.386719 359.546875 231.238281 C 359.546875 231.238281 359.511719 230.820312 359.453125 230.09375 C 359.367188 228.074219 359.574219 223.910156 362.492188 222.015625 "/></g><path style=" stroke:none;fill-rule:nonzero;fill:#428332;fill-opacity:1;" d="M 277.042969 292.082031 C 277.0625 292.097656 280.121094 295.625 288.25 296.507812 C 287.855469 298.765625 286.972656 302.496094 289.722656 305.585938 C 295.773438 312.394531 303.003906 306.519531 303.003906 306.519531 C 303.003906 306.519531 304.703125 317.84375 311.773438 319.679688 C 318.839844 321.519531 334.570312 315.507812 335.101562 314.855469 C 335.613281 314.199219 354.824219 322.378906 355.355469 322.714844 C 355.886719 323.03125 365.179688 328.171875 366.488281 328.296875 C 367.796875 328.4375 374.210938 325.011719 374.210938 325.011719 C 374.210938 325.011719 383.757812 329.199219 387.820312 324.09375 C 387.820312 324.09375 391.265625 329.957031 398.214844 330.347656 C 406.429688 330.824219 409.316406 323.726562 408.785156 319.679688 C 408.785156 319.679688 405.136719 325.269531 397.800781 322.125 C 390.464844 318.996094 391.886719 309.75 391.886719 309.75 C 391.886719 309.75 385.734375 316.496094 379.179688 313.492188 C 372.640625 310.472656 373.683594 302.894531 373.683594 302.894531 C 373.683594 302.894531 370.414062 307.46875 366.222656 305.242188 C 362.195312 303.105469 364.722656 296.710938 364.898438 296.234375 C 364.597656 296.464844 361.789062 298.53125 357.316406 295.421875 C 357.316406 295.421875 353.394531 300.402344 348.550781 297.523438 C 343.707031 294.644531 342.523438 290.066406 342.523438 290.066406 C 342.523438 290.066406 341.605469 293.726562 335.332031 291.761719 C 335.332031 291.761719 338.335938 298.050781 332.960938 299.359375 C 328.066406 300.5625 326.230469 293.140625 325.929688 291.832031 C 326.050781 293.15625 326.566406 300.828125 319.882812 301.179688 C 312.550781 301.585938 312.160156 293.460938 312.160156 293.460938 C 312.160156 293.460938 307.441406 300.933594 301.804688 298.175781 C 296.183594 295.421875 299.1875 290.066406 299.1875 290.066406 C 299.1875 290.066406 285.402344 290.753906 285.878906 279.996094 C 286.074219 275.441406 283.828125 273.125 281.125 271.957031 C 279.144531 274.21875 282.769531 278.742188 282.769531 278.742188 C 282.769531 278.742188 276.867188 272.664062 272.941406 278.355469 C 269.144531 283.867188 276.582031 291.605469 277.042969 292.082031 "/><path style=" stroke:none;fill-rule:nonzero;fill:#428332;fill-opacity:1;" d="M 416.757812 277.769531 C 417.339844 275.789062 418.066406 271.089844 418.066406 271.089844 C 426.96875 273.707031 428.472656 268.144531 428.472656 268.144531 C 428.472656 268.144531 427.292969 272.855469 432.007812 275.015625 C 436.71875 277.171875 439.863281 273.246094 439.863281 273.246094 C 439.863281 273.246094 439.46875 281.296875 443.984375 282.277344 C 448.503906 283.257812 449.878906 278.351562 449.878906 278.351562 C 449.878906 278.351562 451.839844 282.472656 455.570312 282.867188 C 459.304688 283.257812 461.070312 278.351562 461.070312 278.351562 C 461.070312 278.351562 460.285156 282.867188 464.015625 285.222656 C 467.746094 287.578125 475.011719 284.039062 475.011719 284.039062 C 475.011719 284.039062 474.621094 287.378906 477.957031 290.519531 C 481.296875 293.660156 484.832031 289.734375 484.832031 289.734375 C 484.832031 289.734375 482.867188 293.464844 486.011719 296.214844 C 489.152344 298.960938 493.957031 298.570312 493.957031 298.570312 L 498.96875 317.21875 L 495.632812 322.710938 L 490.722656 317.804688 L 483.261719 311.917969 L 456.171875 304.804688 C 456.171875 304.804688 443.199219 293.070312 435.542969 289.34375 C 433.972656 288.578125 431.109375 289.433594 429.019531 289.121094 C 429.582031 282.246094 422.351562 276.902344 416.757812 277.769531 "/><path style=" stroke:none;fill-rule:nonzero;fill:#db3422;fill-opacity:1;" d="M 311.089844 313.5 C 314.046875 322.574219 307.105469 332.160156 295.484375 329.507812 C 283.863281 326.851562 284.085938 310.972656 291.832031 306.4375 C 299.578125 301.902344 308.425781 305.320312 311.089844 313.5 "/><path style=" stroke:none;fill-rule:nonzero;fill:#bf3222;fill-opacity:1;" d="M 291.832031 306.4375 C 292.394531 306.109375 292.960938 305.832031 293.53125 305.585938 C 293.425781 305.917969 289.8125 317.273438 296.515625 322.230469 C 302.398438 326.582031 308.957031 323.832031 310.613281 323.015625 C 308.34375 327.9375 302.863281 331.191406 295.484375 329.507812 C 283.863281 326.851562 284.085938 310.972656 291.832031 306.4375 "/><path style=" stroke:none;fill-rule:nonzero;fill:#59ac34;fill-opacity:1;" d="M 320.675781 331.28125 C 318.75 322.78125 311.167969 317.9375 306.5625 321.730469 C 301.960938 325.527344 302.113281 332.839844 302.113281 332.839844 C 302.113281 332.839844 317.144531 336.390625 317.671875 336.390625 C 318.195312 336.390625 320.675781 331.28125 320.675781 331.28125 "/><path style=" stroke:none;fill-rule:nonzero;fill:#db3422;fill-opacity:1;" d="M 386.714844 222.503906 C 393.929688 226.628906 395.8125 240.101562 383.898438 243.636719 C 371.984375 247.167969 364.261719 236.117188 367.402344 229.308594 C 370.546875 222.503906 378.464844 217.792969 386.714844 222.503906 "/><path style=" stroke:none;fill-rule:nonzero;fill:#bf3222;fill-opacity:1;" d="M 367.402344 229.308594 C 368.777344 226.335938 371.066406 223.757812 373.894531 222.199219 C 371.800781 224.976562 370.171875 236.070312 379.6875 237.945312 C 388.253906 239.636719 391.679688 234.515625 392.46875 233.054688 C 392.441406 237.460938 389.964844 241.835938 383.898438 243.636719 C 371.984375 247.167969 364.261719 236.113281 367.402344 229.308594 "/><path style=" stroke:none;fill-rule:nonzero;fill:#59ac34;fill-opacity:1;" d="M 386.515625 245.015625 C 386.515625 245.015625 393.621094 244.90625 391.203125 240.824219 C 388.871094 236.898438 382.980469 241.21875 382.980469 241.21875 C 382.980469 241.21875 384.71875 233.703125 379.398438 234.1875 C 374.078125 234.675781 375.914062 241.742188 375.914062 241.742188 C 375.914062 241.742188 372.246094 235.460938 368.710938 240.957031 C 365.175781 246.453125 377.613281 246.976562 386.515625 245.015625 "/><path style=" stroke:none;fill-rule:nonzero;fill:#db3422;fill-opacity:1;" d="M 427.863281 252.375 C 432.695312 255.191406 436.765625 263.835938 432.316406 270.695312 C 426.554688 279.574219 414.1875 276.859375 409.960938 271.226562 C 405.738281 265.589844 406.785156 257.179688 412.023438 253.027344 C 415.6875 250.125 421.839844 248.867188 427.863281 252.375 "/><path style=" stroke:none;fill-rule:nonzero;fill:#bf3222;fill-opacity:1;" d="M 409.960938 271.226562 C 405.738281 265.589844 406.785156 257.179688 412.023438 253.027344 C 412.433594 252.703125 412.878906 252.40625 413.347656 252.125 C 413.324219 252.183594 409.359375 263.511719 417.097656 268.113281 C 424.792969 272.6875 433.730469 267.148438 433.871094 267.0625 C 433.570312 268.300781 433.074219 269.523438 432.316406 270.695312 C 426.554688 279.574219 414.1875 276.859375 409.960938 271.226562 "/><path style=" stroke:none;fill-rule:nonzero;fill:#db3422;fill-opacity:1;" d="M 476.324219 278.097656 C 480.757812 284.480469 478.964844 299.453125 463.53125 298.234375 C 449.265625 297.105469 450.457031 280.355469 455.617188 275.839844 C 460.777344 271.324219 470.71875 270.035156 476.324219 278.097656 "/><path style=" stroke:none;fill-rule:nonzero;fill:#bf3222;fill-opacity:1;" d="M 455.617188 275.839844 C 456.175781 275.351562 456.800781 274.910156 457.460938 274.503906 C 457.132812 276.496094 455.617188 284.722656 462.566406 289.726562 C 468.667969 294.117188 476.671875 290.554688 478.109375 288.511719 C 476.996094 294 472.667969 298.953125 463.53125 298.234375 C 449.265625 297.105469 450.457031 280.355469 455.617188 275.839844 "/><path style=" stroke:none;fill-rule:nonzero;fill:#db3422;fill-opacity:1;" d="M 319.210938 277.410156 C 319.636719 278.078125 319.996094 278.816406 320.273438 279.625 C 323.71875 289.699219 314.820312 297.1875 305.085938 292.882812 C 299.523438 290.425781 298.3125 285.308594 299.433594 280.925781 C 306.027344 281.867188 312.621094 281.21875 319.210938 277.410156 "/><path style=" stroke:none;fill-rule:nonzero;fill:#bf3222;fill-opacity:1;" d="M 303.515625 280.277344 C 303.660156 283.160156 304.65625 286.300781 307.96875 287.839844 C 314.902344 291.066406 320.164062 287.929688 320.296875 287.847656 C 318.203125 293.160156 311.851562 295.875 305.085938 292.882812 C 298.894531 290.148438 298.097656 284.128906 299.917969 279.492188 C 301.085938 279.828125 302.269531 280.097656 303.515625 280.277344 "/><path style=" stroke:none;fill-rule:nonzero;fill:#db3422;fill-opacity:1;" d="M 512.714844 297.195312 C 520.628906 304.800781 516.25 319.113281 502.898438 319.113281 C 487.738281 319.113281 487.1875 301.734375 493.4375 296.214844 C 498.234375 291.976562 508.003906 292.664062 512.714844 297.195312 "/><path style=" stroke:none;fill-rule:nonzero;fill:#bf3222;fill-opacity:1;" d="M 493.4375 296.214844 C 493.898438 295.804688 494.421875 295.453125 494.96875 295.136719 C 494.835938 298.105469 495.003906 306.570312 500.804688 310.148438 C 507.339844 314.1875 515.757812 310.132812 516.105469 309.964844 C 514.628906 314.96875 510.074219 319.113281 502.898438 319.113281 C 487.738281 319.113281 487.1875 301.734375 493.4375 296.214844 "/><path style=" stroke:none;fill-rule:nonzero;fill:#68c52f;fill-opacity:1;" d="M 448.304688 310.148438 C 448.304688 310.148438 448.300781 309.992188 448.308594 309.746094 C 448.320312 310.003906 448.304688 310.148438 448.304688 310.148438 "/><g clip-rule="nonzero" clip-path="url(#428b9b38f7)"><path style=" stroke:none;fill-rule:nonzero;fill:#68c52f;fill-opacity:1;" d="M 425.917969 294.074219 C 425.917969 294.074219 425.132812 284.238281 434.757812 284.042969 C 444.378906 283.847656 444.96875 294.074219 444.96875 294.074219 C 444.96875 294.074219 446.144531 285.222656 452.039062 286.203125 C 457.929688 287.183594 458.320312 295.230469 458.320312 295.230469 C 458.320312 295.230469 463.035156 285.613281 471.476562 289.144531 C 479.921875 292.679688 475.210938 303.085938 475.210938 303.085938 C 475.210938 303.085938 481.492188 296.410156 486.796875 299.746094 C 492.097656 303.085938 486.796875 310.933594 486.796875 310.933594 C 486.796875 310.933594 490.722656 307.992188 494.453125 310.933594 C 498.183594 313.875 494.453125 318.984375 494.453125 318.984375 C 497.59375 316.824219 501.71875 318.984375 501.71875 318.984375 C 501.71875 318.984375 498.183594 313.488281 503.289062 309.953125 C 508.394531 306.421875 512.324219 312.503906 512.324219 312.503906 C 512.324219 312.503906 512.519531 308.1875 518.609375 305.046875 C 524.695312 301.90625 528.105469 309.917969 528.105469 309.917969 C 531.171875 307.972656 535.757812 306.8125 538.015625 309.289062 C 540.949219 312.507812 535.886719 318.984375 535.886719 318.984375 C 535.886719 318.984375 543.222656 312.054688 548.652344 318.003906 C 552.777344 322.515625 544.332031 328.011719 544.332031 328.011719 C 544.332031 328.011719 553.824219 324.21875 557.6875 329.78125 C 561.046875 334.621094 554.347656 339.789062 554.347656 339.789062 C 554.347656 339.789062 562.007812 340.183594 562.007812 346.660156 C 562.007812 354.445312 552.777344 353.335938 552.777344 353.335938 C 552.777344 353.335938 557.425781 355.375 555.820312 358.832031 C 554.085938 362.5625 548.257812 359.8125 548.257812 359.8125 C 548.257812 359.8125 554.742188 367.058594 549.109375 371.460938 C 544.882812 374.761719 538.941406 369.789062 537.3125 368.28125 C 537.050781 368.03125 536.871094 367.859375 536.871094 367.859375 C 536.871094 367.859375 542.828125 367.535156 544.265625 364.132812 C 546.179688 359.613281 538.769531 354.1875 538.769531 354.1875 C 538.769531 354.1875 543.21875 354.96875 543.875 351.699219 C 544.679688 347.671875 537.460938 348.035156 537.460938 348.035156 C 537.460938 348.035156 542.242188 346.316406 542.726562 342.773438 C 543.742188 335.339844 534.316406 335.472656 534.316406 335.472656 C 534.316406 335.472656 536.9375 328.929688 532.222656 326.574219 C 527.507812 324.21875 525.414062 329.058594 525.414062 329.058594 C 525.414062 329.058594 527.527344 322.867188 523.910156 321.339844 C 519.261719 319.375 517.035156 327.03125 517.035156 327.03125 C 517.035156 327.03125 514.679688 318.394531 509.574219 320.160156 C 504.46875 321.929688 508.789062 328.011719 508.789062 328.011719 C 508.789062 328.011719 504.273438 325.066406 502.503906 328.210938 C 500.738281 331.347656 505.644531 337.238281 505.644531 337.238281 C 497.398438 331.152344 485.804688 336.0625 485.804688 336.0625 C 490.511719 330.957031 489.347656 323.890625 484.632812 321.730469 C 479.921875 319.574219 475.40625 323.5 475.40625 323.5 C 475.40625 323.5 477.371094 315.253906 472.066406 312.503906 C 466.765625 309.757812 461.070312 316.429688 461.070312 316.429688 C 461.070312 316.429688 462.835938 305.632812 455.375 304.65625 C 449.035156 303.820312 448.367188 308.359375 448.308594 309.746094 C 448.265625 308.625 447.777344 305.367188 443.789062 302.496094 C 438.878906 298.960938 434.558594 306.222656 434.558594 306.222656 C 434.558594 306.222656 438.488281 297.980469 435.34375 294.074219 C 432.203125 290.171875 425.917969 294.074219 425.917969 294.074219 "/></g><path style=" stroke:none;fill-rule:nonzero;fill:#59ac34;fill-opacity:1;" d="M 414.355469 282.683594 C 414.355469 282.683594 420.464844 279.558594 416.757812 273.292969 C 413.046875 267.03125 403.09375 265.808594 401.65625 270.542969 C 400.214844 275.277344 407.808594 285.90625 414.355469 282.683594 "/><path style=" stroke:none;fill-rule:nonzero;fill:#68c52f;fill-opacity:1;" d="M 414.332031 279.921875 C 414.332031 279.921875 424.746094 278.101562 423.566406 272.140625 C 422.382812 266.179688 414.332031 267.355469 414.332031 267.355469 C 414.332031 267.355469 417.671875 261.664062 412.371094 258.917969 C 407.066406 256.167969 401.765625 263.234375 401.765625 263.234375 C 401.765625 263.234375 406.28125 258.132812 403.140625 256.367188 C 400 254.597656 396.070312 258.328125 396.070312 258.328125 C 396.070312 258.328125 402.945312 244.589844 395.089844 241.644531 C 387.234375 238.699219 382.71875 246.746094 382.71875 252.242188 C 382.71875 252.242188 381.933594 243.605469 376.433594 243.804688 C 370.933594 244 372.898438 252.636719 372.898438 252.636719 C 372.898438 252.636719 369.363281 239.679688 360.332031 242.035156 C 351.296875 244.390625 355.226562 254.207031 355.226562 254.207031 C 355.226562 254.207031 347.371094 250.085938 341.871094 255.972656 C 336.375 261.863281 344.226562 270.300781 344.226562 270.300781 C 344.226562 270.300781 345.011719 263.824219 351.101562 264.21875 C 357.1875 264.609375 361.117188 268.144531 361.117188 268.144531 C 361.117188 268.144531 357.582031 262.410156 362.097656 260.46875 C 366.613281 258.527344 369.71875 265.1875 369.71875 265.1875 C 369.71875 265.1875 370.339844 260.46875 374.078125 260.46875 C 378.886719 260.46875 378.746094 264.996094 378.746094 264.996094 C 378.746094 264.996094 380.460938 260.089844 385.859375 260.46875 C 393.523438 261.003906 391.75 268.734375 388.214844 271.089844 C 388.214844 271.089844 393.667969 268.722656 396.070312 271.285156 C 399.015625 274.425781 396.070312 279.921875 396.070312 279.921875 C 396.070312 279.921875 406.675781 278.546875 403.925781 269.910156 C 403.925781 269.910156 418.066406 266.375 414.332031 279.921875 "/><path style=" stroke:none;fill-rule:nonzero;fill:#428332;fill-opacity:1;" d="M 281.390625 271.675781 C 283.941406 269.515625 286.496094 270.695312 286.496094 270.695312 C 286.496094 270.695312 275.496094 264.019531 279.816406 259.308594 C 284.136719 254.597656 290.617188 258.71875 290.617188 258.71875 C 290.617188 258.71875 285.511719 254.792969 288.65625 250.871094 C 288.902344 250.558594 289.15625 250.292969 289.410156 250.046875 C 288.792969 256.355469 295.660156 260.46875 295.660156 260.46875 C 295.660156 260.46875 291.078125 265.851562 293.957031 268.144531 C 296.835938 270.433594 300.503906 265.460938 300.503906 265.460938 C 300.503906 265.460938 299.847656 273.574219 305.347656 275.40625 C 310.84375 277.238281 315.035156 270.171875 315.035156 270.171875 C 315.035156 270.171875 315.949219 276.84375 320.53125 276.84375 C 325.113281 276.84375 326.554688 272.003906 326.554688 272.003906 C 327.472656 274.359375 328.398438 282.25 321.710938 283.78125 C 315.425781 285.222656 313.332031 279.921875 313.332031 279.921875 C 313.332031 279.921875 310.535156 284.898438 301.941406 283.125 C 293.695312 281.425781 291.992188 273.96875 291.992188 273.96875 C 291.992188 273.96875 292.398438 277.984375 288.359375 279.625 C 285.21875 280.902344 282.765625 278.742188 282.765625 278.742188 C 282.765625 278.742188 278.835938 273.835938 281.390625 271.675781 "/><path style=" stroke:none;fill-rule:nonzero;fill:#428332;fill-opacity:1;" d="M 282.765625 278.742188 C 282.765625 278.742188 281.667969 277.945312 280.121094 276.792969 C 281.671875 277.621094 282.765625 278.742188 282.765625 278.742188 "/><path style=" stroke:none;fill-rule:nonzero;fill:#db3422;fill-opacity:1;" d="M 464.667969 239.921875 C 470.597656 242.152344 475.257812 249.625 471.40625 256.105469 C 467.554688 262.582031 458.324219 263.082031 453.417969 259.605469 C 448.015625 255.777344 447.632812 246.429688 451.214844 242.679688 C 453.84375 239.921875 459.101562 237.832031 464.667969 239.921875 "/><path style=" stroke:none;fill-rule:nonzero;fill:#bf3222;fill-opacity:1;" d="M 472.667969 252.664062 C 472.476562 253.820312 472.078125 254.976562 471.40625 256.105469 C 467.554688 262.582031 458.324219 263.082031 453.417969 259.605469 C 448.015625 255.777344 447.632812 246.429688 451.214844 242.679688 C 452.613281 241.210938 454.769531 239.957031 457.308594 239.398438 C 456.375 241.019531 452.453125 248.6875 459.015625 253.324219 C 465.769531 258.09375 471.726562 253.464844 472.667969 252.664062 "/><path style=" stroke:none;fill-rule:nonzero;fill:#59ac34;fill-opacity:1;" d="M 451.78125 267.894531 C 451.78125 267.894531 466.371094 268.105469 466.257812 262.472656 C 466.144531 256.839844 456.566406 258.878906 456.566406 258.878906 C 456.566406 258.878906 463.328125 253.460938 459.382812 249.894531 C 455.4375 246.324219 450.742188 252.710938 450.742188 252.710938 C 450.742188 252.710938 452.261719 242.652344 445.398438 243.925781 C 438.53125 245.199219 440.886719 261.605469 451.78125 267.894531 "/><path style=" stroke:none;fill-rule:nonzero;fill:#68c52f;fill-opacity:1;" d="M 445.398438 243.925781 C 452.261719 242.652344 450.742188 252.710938 450.742188 252.710938 C 450.742188 252.710938 455.4375 246.324219 459.382812 249.894531 C 463.328125 253.460938 456.566406 258.878906 456.566406 258.878906 C 456.566406 258.878906 466.144531 256.839844 466.257812 262.472656 C 466.316406 265.3125 462.644531 266.664062 458.984375 267.308594 C 459.15625 267.074219 462.253906 262.78125 458.96875 261.554688 C 455.585938 260.289062 450.796875 260.824219 450.796875 260.824219 C 450.796875 260.824219 455.164062 255.316406 451.78125 255.054688 C 448.402344 254.796875 445.433594 257.003906 445.433594 257.003906 C 445.433594 257.003906 448.265625 246.773438 442.484375 246.703125 C 442.394531 246.699219 442.335938 246.664062 442.253906 246.65625 C 442.882812 245.214844 443.910156 244.199219 445.398438 243.925781 "/><path style=" stroke:none;fill-rule:nonzero;fill:#59ac34;fill-opacity:1;" d="M 464.316406 268 C 463.476562 266.402344 467.546875 264.90625 469.507812 267.367188 C 471.464844 269.828125 465.773438 270.769531 464.316406 268 "/><path style=" stroke:none;fill-rule:nonzero;fill:#db3422;fill-opacity:1;" d="M 385.585938 270.542969 C 390.035156 273.195312 392.769531 278.765625 389.980469 284.613281 C 387.191406 290.457031 378.421875 291.597656 373.375 289.101562 C 368.328125 286.609375 365.527344 278.355469 369.574219 273.273438 C 374.03125 267.683594 380.710938 267.632812 385.585938 270.542969 "/><path style=" stroke:none;fill-rule:nonzero;fill:#bf3222;fill-opacity:1;" d="M 373.375 289.101562 C 368.328125 286.609375 365.527344 278.355469 369.574219 273.273438 C 370.480469 272.136719 371.480469 271.242188 372.535156 270.542969 C 372.128906 273.445312 371.019531 280.613281 376.925781 283.671875 C 384.597656 287.644531 390.953125 281.277344 391.003906 281.242188 C 390.851562 282.34375 390.523438 283.472656 389.980469 284.613281 C 387.191406 290.457031 378.421875 291.597656 373.375 289.101562 "/><path style=" stroke:none;fill-rule:nonzero;fill:#db3422;fill-opacity:1;" d="M 330.890625 268.519531 C 336.976562 271.585938 345.484375 267.066406 345.980469 259.617188 C 346.449219 252.558594 338.953125 246.394531 331.507812 249.753906 C 323.84375 253.214844 322.355469 264.21875 330.890625 268.519531 "/><path style=" stroke:none;fill-rule:nonzero;fill:#bf3222;fill-opacity:1;" d="M 329.292969 251.109375 C 329.226562 251.351562 327.152344 258.875 333.722656 262.210938 C 340.289062 265.550781 345.6875 260.644531 345.863281 260.480469 C 344.789062 267.40625 336.734375 271.464844 330.890625 268.519531 C 323.265625 264.675781 323.65625 255.496094 329.292969 251.109375 "/><path style=" stroke:none;fill-rule:nonzero;fill:#db3422;fill-opacity:1;" d="M 538.234375 329.058594 C 547.476562 329.535156 553.828125 340.9375 547.746094 348.519531 C 541.664062 356.101562 530.390625 353.839844 527.390625 346.890625 C 524.433594 340.035156 528.511719 328.558594 538.234375 329.058594 "/><path style=" stroke:none;fill-rule:nonzero;fill:#bf3222;fill-opacity:1;" d="M 531.714844 330.90625 C 531.023438 333.371094 530.101562 339.417969 535.632812 344.328125 C 541.960938 349.941406 548.71875 346.941406 548.820312 346.894531 C 548.515625 347.449219 548.167969 347.996094 547.746094 348.519531 C 541.664062 356.101562 530.390625 353.839844 527.390625 346.890625 C 525.222656 341.855469 526.851562 334.351562 531.714844 330.90625 "/><path style=" stroke:none;fill-rule:nonzero;fill:#db3422;fill-opacity:1;" d="M 419.398438 295.871094 C 424.546875 300.300781 425.953125 309.859375 416.9375 314.960938 C 407.921875 320.066406 396.828125 312.097656 397.867188 303.5 C 399.113281 293.191406 410.792969 288.464844 419.398438 295.871094 "/><path style=" stroke:none;fill-rule:nonzero;fill:#bf3222;fill-opacity:1;" d="M 397.867188 303.5 C 398.441406 298.761719 401.230469 295.226562 404.898438 293.484375 C 404.242188 295.785156 402.105469 304.9375 408.480469 308.46875 C 415.320312 312.257812 422.433594 308.671875 422.796875 308.484375 C 421.890625 310.910156 420.046875 313.203125 416.9375 314.960938 C 407.921875 320.066406 396.828125 312.097656 397.867188 303.5 "/><path style=" stroke:none;fill-rule:nonzero;fill:#db3422;fill-opacity:1;" d="M 350.535156 279.996094 C 355.496094 281.949219 359.21875 287.84375 356.921875 294.421875 C 354.101562 302.492188 344.425781 302.796875 339.78125 299.65625 C 335.140625 296.511719 332.261719 288.359375 337.101562 283.164062 C 341.191406 278.777344 346.789062 278.519531 350.535156 279.996094 "/><path style=" stroke:none;fill-rule:nonzero;fill:#bf3222;fill-opacity:1;" d="M 339.71875 281.050781 C 339.429688 282.921875 338.402344 291.671875 344.148438 294.519531 C 350.5 297.667969 357.199219 292.789062 357.386719 292.65625 C 357.273438 293.238281 357.128906 293.824219 356.921875 294.421875 C 354.101562 302.492188 344.425781 302.796875 339.78125 299.65625 C 335.140625 296.511719 332.261719 288.359375 337.101562 283.164062 C 337.921875 282.289062 338.808594 281.617188 339.71875 281.050781 "/><path style=" stroke:none;fill-rule:nonzero;fill:#db3422;fill-opacity:1;" d="M 276.355469 322.933594 C 281.847656 329.9375 278.320312 342.714844 265.972656 342.722656 C 253.390625 342.726562 250.40625 326.628906 256.132812 321.738281 C 261.859375 316.84375 271.167969 316.316406 276.355469 322.933594 "/><path style=" stroke:none;fill-rule:nonzero;fill:#bf3222;fill-opacity:1;" d="M 256.132812 321.738281 C 257.34375 320.703125 258.722656 319.875 260.179688 319.257812 C 260.136719 319.402344 256.660156 331.179688 263.816406 335.285156 C 270.433594 339.082031 277.171875 335.707031 277.898438 335.324219 C 276.1875 339.453125 272.210938 342.71875 265.972656 342.722656 C 253.390625 342.726562 250.40625 326.628906 256.132812 321.738281 "/><path style=" stroke:none;fill-rule:nonzero;fill:#db3422;fill-opacity:1;" d="M 317.597656 340.445312 C 323.589844 347.621094 317.242188 362.773438 304.277344 359.417969 C 291.453125 356.101562 294.609375 343.148438 298.453125 339.28125 C 303.445312 334.253906 312.769531 334.664062 317.597656 340.445312 "/><path style=" stroke:none;fill-rule:nonzero;fill:#bf3222;fill-opacity:1;" d="M 302.53125 336.667969 C 302.5 336.78125 297.460938 349.851562 306.441406 353.429688 C 314.234375 356.535156 319.21875 351.167969 319.238281 351.144531 C 317.476562 356.757812 312.078125 361.433594 304.277344 359.417969 C 291.453125 356.101562 294.609375 343.148438 298.453125 339.28125 C 299.613281 338.113281 301.011719 337.25 302.53125 336.667969 "/><path style=" stroke:none;fill-rule:nonzero;fill:#db3422;fill-opacity:1;" d="M 363.972656 344.277344 C 366.816406 346.363281 368.890625 350.152344 369.058594 354.25 C 369.289062 359.867188 366.144531 365.753906 357.542969 367.058594 C 342.667969 369.316406 337.070312 351.441406 345.378906 344.855469 C 346.335938 344.09375 347.28125 343.472656 348.214844 342.972656 C 354.398438 339.660156 360.265625 341.554688 363.972656 344.277344 "/><path style=" stroke:none;fill-rule:nonzero;fill:#bf3222;fill-opacity:1;" d="M 345.378906 344.855469 C 346.015625 344.347656 346.648438 343.921875 347.28125 343.535156 C 346.773438 346.101562 346.761719 358 354.589844 360.144531 C 363.042969 362.457031 368.601562 358.300781 368.605469 358.296875 C 367.449219 362.441406 364.066406 366.066406 357.542969 367.058594 C 342.667969 369.316406 337.070312 351.441406 345.378906 344.855469 "/><path style=" stroke:none;fill-rule:nonzero;fill:#db3422;fill-opacity:1;" d="M 382.488281 313.78125 C 387.226562 320.769531 380.40625 334.164062 367.472656 330.726562 C 354.539062 327.285156 356.898438 314.683594 363.378906 309.753906 C 371.578125 303.507812 379.214844 308.953125 382.488281 313.78125 "/><path style=" stroke:none;fill-rule:nonzero;fill:#bf3222;fill-opacity:1;" d="M 382.488281 324.34375 L 382.550781 324.636719 C 380.125 329.242188 374.773438 332.664062 367.472656 330.726562 C 354.539062 327.285156 356.898438 314.683594 363.378906 309.753906 C 364.304688 309.046875 365.222656 308.507812 366.132812 308.082031 C 365.050781 311.136719 362.789062 319.558594 369.109375 323.367188 C 376.910156 328.070312 382.488281 324.34375 382.488281 324.34375 "/><path style=" stroke:none;fill-rule:nonzero;fill:#db3422;fill-opacity:1;" d="M 500.316406 350.242188 C 501.867188 352.058594 503.007812 355.519531 502.886719 357.996094 C 502.5625 364.617188 497.40625 372.011719 486.914062 368.910156 C 472.503906 364.648438 478.742188 346.808594 486.890625 345.84375 C 487.675781 345.75 488.414062 345.628906 489.121094 345.613281 C 493.738281 345.519531 496.878906 346.21875 500.316406 350.242188 "/><path style=" stroke:none;fill-rule:nonzero;fill:#bf3222;fill-opacity:1;" d="M 486.890625 345.84375 C 487.070312 345.820312 487.226562 345.824219 487.402344 345.804688 C 485.929688 347.578125 482.710938 358.59375 489.566406 362.652344 C 496.394531 366.691406 501.769531 362.710938 501.84375 362.65625 C 499.832031 367.515625 494.933594 371.28125 486.914062 368.910156 C 472.503906 364.648438 478.742188 346.808594 486.890625 345.84375 "/><path style=" stroke:none;fill-rule:nonzero;fill:#59ac34;fill-opacity:1;" d="M 529.210938 345.582031 C 529.210938 345.582031 537.359375 345.875 535.296875 351.175781 C 533.238281 356.476562 524.398438 352.746094 522.242188 349.605469 C 520.082031 346.464844 522.242188 338.121094 526.167969 337.042969 C 530.097656 335.960938 532.257812 341.65625 529.210938 345.582031 "/><path style=" stroke:none;fill-rule:nonzero;fill:#db3422;fill-opacity:1;" d="M 466.425781 326.707031 C 469.03125 331.425781 468.175781 344.621094 455.007812 343.6875 C 441.203125 342.707031 440.867188 327.722656 447.605469 322.984375 C 454.203125 318.34375 462.539062 319.65625 466.425781 326.707031 "/><path style=" stroke:none;fill-rule:nonzero;fill:#bf3222;fill-opacity:1;" d="M 447.605469 322.984375 C 448.441406 322.398438 449.300781 321.90625 450.175781 321.511719 C 450.171875 321.523438 446.472656 331.234375 452.859375 335.871094 C 459.105469 340.40625 466.078125 337.9375 466.382812 337.824219 C 464.746094 341.355469 461.289062 344.132812 455.007812 343.6875 C 441.203125 342.707031 440.867188 327.722656 447.605469 322.984375 "/><path style=" stroke:none;fill-rule:nonzero;fill:#59ac34;fill-opacity:1;" d="M 472.160156 319.628906 C 475.433594 323.554688 479.621094 331.800781 474.253906 332.324219 C 468.886719 332.847656 467.316406 324.210938 467.316406 324.210938 C 467.316406 324.210938 464.828125 327.375 461.425781 325.988281 C 458.019531 324.601562 459.722656 320.285156 459.722656 320.285156 C 459.722656 320.285156 456.710938 327.351562 451.082031 324.996094 C 445.453125 322.640625 447.285156 316.75 454.09375 314.917969 C 460.902344 313.085938 464.570312 316.292969 464.570312 316.292969 L 472.160156 319.628906 "/><path style=" stroke:none;fill-rule:nonzero;fill:#db3422;fill-opacity:1;" d="M 433.410156 331.394531 C 437.238281 336.585938 436.332031 351.800781 420.964844 348.890625 C 407.8125 346.402344 410.886719 330.714844 419 327.574219 C 425.585938 325.023438 429.800781 326.5 433.410156 331.394531 "/><path style=" stroke:none;fill-rule:nonzero;fill:#bf3222;fill-opacity:1;" d="M 419 327.574219 C 417.625 329.632812 415.269531 339.742188 422.535156 343.289062 C 429.785156 346.828125 434.949219 341.300781 434.972656 341.277344 C 433.851562 346.238281 429.804688 350.566406 420.964844 348.890625 C 407.8125 346.402344 410.886719 330.714844 419 327.574219 "/><path style=" stroke:none;fill-rule:nonzero;fill:#59ac34;fill-opacity:1;" d="M 440.191406 328.304688 C 442.675781 332.59375 440.710938 338.613281 436.917969 337.957031 C 433.121094 337.304688 432.332031 330.761719 432.332031 330.761719 C 432.332031 330.761719 429.585938 333.117188 426.835938 332.070312 C 424.085938 331.023438 425.003906 327.359375 425.003906 327.359375 C 425.003906 327.359375 418.457031 332.691406 416.101562 329.894531 C 413.746094 327.097656 421.832031 319.246094 425.90625 319.113281 C 429.976562 318.984375 440.191406 328.304688 440.191406 328.304688 "/><path style=" stroke:none;fill-rule:nonzero;fill:#68c52f;fill-opacity:1;" d="M 404.484375 239.789062 C 402.9375 237.992188 407.921875 230.75 411.085938 233.773438 C 413.523438 236.105469 406.457031 242.089844 404.484375 239.789062 "/><path style=" stroke:none;fill-rule:nonzero;fill:#68c52f;fill-opacity:1;" d="M 412.238281 240.355469 C 415.699219 239.855469 417.257812 243.15625 413.808594 244.273438 C 410.75 245.265625 408.621094 244.273438 408.679688 242.953125 C 408.726562 241.953125 410.75 240.574219 412.238281 240.355469 "/><path style=" stroke:none;fill-rule:nonzero;fill:#68c52f;fill-opacity:1;" d="M 376.34375 337.078125 C 376.34375 337.078125 371.371094 332.472656 366.65625 336.144531 C 366.65625 336.144531 367.347656 331.78125 363.25 329.4375 C 358.667969 326.820312 353.957031 331.660156 353.957031 331.660156 C 353.957031 331.660156 355.660156 326.035156 351.339844 323.941406 C 347.019531 321.847656 343.351562 326.035156 343.351562 326.035156 C 343.351562 326.035156 343.628906 318.675781 338.246094 317.660156 C 332.863281 316.644531 330.765625 322.738281 330.765625 322.738281 C 330.765625 322.738281 326.859375 318.511719 321.359375 321.0625 C 315.859375 323.613281 316.007812 328.65625 316.007812 328.65625 C 316.007812 328.65625 312.0625 322.371094 306.828125 325.378906 C 301.589844 328.390625 302.113281 332.839844 302.113281 332.839844 C 302.113281 332.839844 297.792969 324.070312 303.699219 318.96875 C 309.230469 314.1875 314.945312 318.179688 314.945312 318.179688 C 314.945312 318.179688 314.683594 311.769531 321.488281 310.070312 C 328.296875 308.367188 329.34375 312.03125 329.34375 312.03125 C 329.34375 312.03125 332.5625 302.035156 339.6875 304.050781 C 346.625 306.011719 346.496094 315.828125 346.496094 315.828125 C 346.496094 315.828125 348.195312 309.546875 354.21875 310.722656 C 361.386719 312.125 359.453125 321.78125 359.453125 321.78125 C 359.453125 321.78125 362.859375 318.179688 366.785156 320.429688 C 373.546875 324.296875 371.089844 329.820312 371.089844 329.820312 C 371.089844 329.820312 377.523438 332.363281 376.34375 337.078125 "/><path style=" stroke:none;fill-rule:nonzero;fill:#59ac34;fill-opacity:1;" d="M 373.6875 341.351562 C 373.6875 341.351562 378.828125 347.074219 376.566406 352.476562 C 374.308594 357.878906 366.75 357.316406 365.832031 348.8125 C 365.832031 348.8125 361.121094 355.617188 357.0625 353.261719 C 353.003906 350.90625 356.015625 344.492188 356.015625 344.492188 C 356.015625 344.492188 354.050781 348.8125 351.433594 347.632812 C 348.8125 346.457031 348.550781 342.003906 348.550781 342.003906 C 348.550781 342.003906 349.070312 350.769531 343.050781 349.734375 C 337.027344 348.703125 335.851562 342.925781 336.898438 339.390625 C 337.949219 335.855469 370.773438 336.261719 373.6875 341.351562 "/><path style=" stroke:none;fill-rule:nonzero;fill:#59ac34;fill-opacity:1;" d="M 356.5 277.769531 C 359.496094 279.472656 362.882812 282.277344 358.660156 284.535156 C 354.441406 286.789062 350.511719 283.257812 350.511719 283.257812 C 350.511719 283.257812 350.609375 288.65625 347.664062 288.460938 C 344.71875 288.265625 344.523438 284.027344 344.523438 284.027344 C 344.523438 284.027344 338.238281 289.34375 335.390625 285.023438 C 332.542969 280.707031 351.003906 274.632812 356.5 277.769531 "/><path style=" stroke:none;fill-rule:nonzero;fill:#59ac34;fill-opacity:1;" d="M 337.550781 271.742188 C 337.550781 271.742188 346.585938 269.253906 342.394531 265.984375 C 338.207031 262.710938 333.625 266.507812 333.625 266.507812 C 333.625 266.507812 335.585938 262.121094 332.316406 261.371094 C 329.042969 260.617188 328.386719 264.414062 328.386719 264.414062 C 328.386719 264.414062 327.734375 257.347656 322.628906 257.347656 C 317.519531 257.347656 323.644531 267.554688 327.195312 269.386719 C 330.742188 271.21875 337.550781 271.742188 337.550781 271.742188 "/><path style=" stroke:none;fill-rule:nonzero;fill:#59ac34;fill-opacity:1;" d="M 382.054688 267.039062 C 386.496094 268.121094 387.792969 272.882812 383.140625 273.964844 C 378.484375 275.046875 375.992188 272.773438 375.992188 272.773438 C 375.992188 272.773438 377.292969 278.832031 373.503906 280.023438 C 369.714844 281.214844 369.390625 276.574219 369.390625 276.574219 C 369.390625 276.574219 363.433594 277.425781 362.460938 274.828125 C 362.007812 273.617188 365.007812 268.753906 369.660156 267.203125 C 374.972656 265.429688 382.054688 267.039062 382.054688 267.039062 "/><path style=" stroke:none;fill-rule:nonzero;fill:#59ac34;fill-opacity:1;" d="M 504.035156 351.636719 C 503.992188 356.679688 502.445312 361.175781 497.328125 359.132812 C 492.21875 357.085938 493.886719 350.726562 493.886719 350.726562 C 493.886719 350.726562 489.679688 356.484375 485.324219 353.492188 C 480.96875 350.5 482.558594 345.957031 488.355469 343.34375 C 494.148438 340.734375 504.0625 348.152344 504.035156 351.636719 "/><path style=" stroke:none;fill-rule:nonzero;fill:#428332;fill-opacity:1;" d="M 337.90625 344.171875 C 339.929688 348.011719 339.84375 352.515625 336.203125 351.234375 C 333.660156 350.335938 333.652344 347.269531 334.125 344.621094 C 334.539062 342.277344 336.492188 341.484375 337.90625 344.171875 "/><path style=" stroke:none;fill-rule:nonzero;fill:#428332;fill-opacity:1;" d="M 330.875 343.421875 C 332.269531 344.285156 330.496094 351.648438 327.875 352.585938 C 325.007812 353.609375 322.402344 351.238281 324.125 347.90625 C 325.84375 344.570312 328.96875 342.25 330.875 343.421875 "/><path style=" stroke:none;fill-rule:nonzero;fill:#428332;fill-opacity:1;" d="M 509.695312 351.46875 C 512.011719 355.722656 512.28125 361.238281 508.039062 360.253906 C 504.65625 359.464844 504.207031 353.914062 505.027344 350.484375 C 505.5 348.519531 507.570312 347.566406 509.695312 351.46875 "/><path style=" stroke:none;fill-rule:nonzero;fill:#68c52f;fill-opacity:1;" d="M 519.757812 331 C 522.242188 327.839844 527.355469 331.558594 522.523438 335.914062 C 518.84375 339.234375 515.503906 336.417969 519.757812 331 "/><path style=" stroke:none;fill-rule:nonzero;fill:#68c52f;fill-opacity:1;" d="M 531.386719 352.761719 C 534.457031 353.496094 537.753906 356.480469 535.601562 358.132812 C 533.453125 359.785156 529.804688 356.75 528.5 354.304688 C 527.59375 352.601562 529.429688 352.292969 531.386719 352.761719 "/><path style=" stroke:none;fill-rule:nonzero;fill:#68c52f;fill-opacity:1;" d="M 513.847656 332.925781 C 515.792969 334.980469 516.691406 337.589844 514.632812 337.464844 C 512.574219 337.339844 509.535156 334.90625 510.121094 333.429688 C 510.710938 331.949219 512.261719 331.25 513.847656 332.925781 "/><path style=" stroke:none;fill-rule:nonzero;fill:#428332;fill-opacity:1;" d="M 333.886719 270.378906 C 337.785156 272.804688 340.5625 275.8125 337.683594 277.769531 C 334.800781 279.726562 331.53125 275.238281 330.742188 273.292969 C 329.957031 271.351562 330.890625 268.519531 333.886719 270.378906 "/><path style=" stroke:none;fill-rule:nonzero;fill:#428332;fill-opacity:1;" d="M 283.207031 328.992188 C 283.207031 328.992188 283.695312 336.257812 279.574219 335.765625 C 275.449219 335.273438 274.96875 327.914062 274.96875 327.914062 C 274.96875 327.914062 270.019531 330.957031 267.777344 328.40625 C 265.535156 325.855469 268.28125 320.429688 268.28125 320.429688 C 268.28125 320.429688 260.722656 323.125 259.839844 318.601562 C 258.953125 314.074219 269.460938 311.132812 273.976562 315.648438 C 278.492188 320.160156 283.207031 328.992188 283.207031 328.992188 "/><path style=" stroke:none;fill-rule:nonzero;fill:#59ac34;fill-opacity:1;" d="M 318.777344 338.875 C 323.761719 344.128906 323.054688 349.550781 317.015625 347.84375 C 310.976562 346.136719 310.613281 341.210938 310.613281 341.210938 C 310.613281 341.210938 306.410156 346.464844 303.921875 345.417969 C 301.4375 344.371094 303.007812 340.269531 303.007812 340.269531 C 303.007812 340.269531 294.890625 343.238281 294.496094 340.269531 C 294.105469 337.304688 308.285156 326.199219 318.777344 338.875 "/><path style=" stroke:none;fill-rule:nonzero;fill:#59ac34;fill-opacity:1;" d="M 427.003906 298.472656 C 427.003906 298.472656 425.28125 303.347656 420.414062 301.394531 C 415.550781 299.441406 415.070312 294.777344 415.070312 294.777344 C 415.070312 294.777344 411.214844 298.300781 409.191406 297.769531 C 407.167969 297.234375 407.699219 293.617188 407.699219 293.617188 C 407.699219 293.617188 402.050781 295.773438 400.636719 292.710938 C 399.222656 289.644531 413.761719 284.957031 413.820312 284.917969 C 413.882812 284.878906 427.003906 298.472656 427.003906 298.472656 "/><path style=" stroke:none;fill-rule:nonzero;fill:#428332;fill-opacity:1;" d="M 437.476562 322.785156 C 440.378906 326.964844 440.925781 332.277344 437.441406 332.046875 C 433.957031 331.820312 434.089844 326.898438 434.34375 324.417969 C 434.601562 321.9375 435.691406 320.210938 437.476562 322.785156 "/><path style=" stroke:none;fill-rule:nonzero;fill:#428332;fill-opacity:1;" d="M 429.386719 319.261719 C 431.035156 320.457031 430.277344 323.5 428.332031 325.503906 C 426.386719 327.507812 423.664062 325.488281 424.558594 322.757812 C 425.453125 320.027344 428.519531 318.632812 429.386719 319.261719 "/><path style=" stroke:none;fill-rule:nonzero;fill:#428332;fill-opacity:1;" d="M 387.054688 333.296875 C 390.792969 336.28125 393.207031 342.539062 388.757812 342.796875 C 384.304688 343.058594 383.78125 338.429688 383.390625 335.445312 C 382.996094 332.460938 384.5625 331.304688 387.054688 333.296875 "/><path style=" stroke:none;fill-rule:nonzero;fill:#428332;fill-opacity:1;" d="M 396.074219 331.996094 C 400.277344 332.675781 401.035156 336.039062 398.683594 336.722656 C 396.332031 337.402344 393.019531 334.601562 392.59375 333.492188 C 392.167969 332.382812 393.660156 331.609375 396.074219 331.996094 "/><path style=" stroke:none;fill-rule:nonzero;fill:#68c52f;fill-opacity:1;" d="M 345.6875 330.628906 C 349.058594 329.332031 352.117188 333.097656 348.058594 334.820312 C 344.886719 336.171875 342.214844 336.175781 342.214844 334.820312 C 342.214844 333.46875 343.871094 331.328125 345.6875 330.628906 "/><path style=" stroke:none;fill-rule:nonzero;fill:#68c52f;fill-opacity:1;" d="M 338.539062 324.609375 C 341.078125 327.222656 338.859375 334.980469 336.835938 334.980469 C 334.183594 334.980469 334.050781 331.28125 333.886719 327.574219 C 333.75 324.558594 336.785156 322.8125 338.539062 324.609375 "/><path style=" stroke:none;fill-rule:nonzero;fill:#68c52f;fill-opacity:1;" d="M 326 327.238281 C 327.851562 329.394531 327.710938 332.203125 326.894531 332.589844 C 325.605469 333.199219 321.761719 329.984375 321.765625 328.035156 C 321.765625 326.828125 324.109375 325.039062 326 327.238281 "/><path style=" stroke:none;fill-rule:nonzero;fill:#428332;fill-opacity:1;" d="M 518.960938 354.53125 C 520.894531 356.863281 523.828125 361.203125 520.9375 362.164062 C 518.042969 363.128906 515.496094 356.40625 515.65625 354.53125 C 515.820312 352.660156 517.097656 352.285156 518.960938 354.53125 "/><path style=" stroke:none;fill-rule:nonzero;fill:#68c52f;fill-opacity:1;" d="M 350.253906 239.269531 C 351.601562 243.0625 352.070312 247.347656 349.304688 246.390625 C 346.542969 245.433594 342.398438 239.277344 343.777344 237.574219 C 345.160156 235.871094 348.96875 235.65625 350.253906 239.269531 "/><path style=" stroke:none;fill-rule:nonzero;fill:#68c52f;fill-opacity:1;" d="M 310.640625 256.191406 C 311.277344 256.894531 315.269531 255.945312 316.179688 253.589844 C 317.085938 251.234375 314.859375 250.160156 313.039062 251.355469 C 311.222656 252.554688 309.664062 255.113281 310.640625 256.191406 "/><path style=" stroke:none;fill-rule:nonzero;fill:#68c52f;fill-opacity:1;" d="M 304.421875 249.914062 C 307.664062 252.574219 308.695312 255.394531 306.667969 255.816406 C 304.644531 256.238281 300.570312 253.0625 300.332031 251.160156 C 300.097656 249.253906 302.035156 247.957031 304.421875 249.914062 "/><path style=" stroke:none;fill-rule:nonzero;fill:#68c52f;fill-opacity:1;" d="M 439.253906 244.324219 C 439.539062 246.890625 438.859375 249.738281 437.894531 249.953125 C 435.925781 250.386719 434.773438 246.925781 434.753906 243.855469 C 434.742188 241.503906 438.933594 241.433594 439.253906 244.324219 "/><path style=" stroke:none;fill-rule:nonzero;fill:#68c52f;fill-opacity:1;" d="M 432.316406 242.550781 C 433.675781 245.609375 432.6875 247.117188 431.5625 246.824219 C 430.214844 246.46875 428.09375 243.390625 428.324219 242.320312 C 428.847656 239.910156 431.429688 240.5625 432.316406 242.550781 "/><g clip-rule="nonzero" clip-path="url(#a68872a074)"><path style=" stroke:none;fill-rule:nonzero;fill:#59ac34;fill-opacity:1;" d="M 349.15625 500.0625 C 348.652344 499.839844 347.363281 499.097656 347.789062 497.398438 C 348.3125 495.304688 353.289062 496.613281 353.289062 496.613281 C 345.695312 494.914062 341.375 489.546875 341.636719 488.890625 C 341.898438 488.238281 343.601562 486.667969 349.753906 488.109375 C 355.90625 489.546875 358.394531 492.816406 358.394531 492.816406 C 358.394531 492.816406 356.824219 489.023438 358.394531 487.714844 C 359.964844 486.40625 363.628906 493.472656 363.628906 493.472656 C 363.628906 493.472656 363.5 491.117188 364.546875 489.546875 C 365.160156 488.625 367.84375 489.597656 369.960938 490.554688 C 364.957031 487.367188 360.894531 480.976562 361.011719 480.386719 C 361.273438 479.078125 363.628906 478.292969 369.914062 481.957031 C 375.960938 485.484375 379.863281 490.726562 379.863281 490.726562 C 379.863281 490.726562 374.101562 480.78125 378.554688 482.742188 C 380.785156 483.726562 382.820312 485.367188 384.296875 486.761719 C 378.59375 479.863281 375.457031 469.582031 375.804688 469 C 376.199219 468.347656 378.421875 467.300781 384.707031 473.582031 C 390.992188 479.863281 391.382812 489.808594 391.382812 489.808594 C 391.382812 489.808594 391.253906 484.445312 393.488281 483.917969 C 395.566406 483.433594 398.40625 488.703125 398.796875 489.453125 C 398.40625 488.699219 395.648438 483.203125 394.917969 477.246094 C 394.132812 470.832031 396.621094 462.511719 397.40625 462.457031 C 398.191406 462.40625 400.546875 462.457031 403.6875 471.75 C 406.734375 480.75 403.953125 489.023438 403.953125 489.023438 C 403.953125 489.023438 407.515625 479.445312 409.703125 480.78125 C 411.414062 481.824219 410.761719 488.359375 410.761719 488.359375 C 410.761719 488.359375 413.117188 481.171875 415.601562 476.328125 C 418.089844 471.488281 422.28125 468.347656 422.542969 473.972656 C 422.804688 479.601562 419.398438 485.488281 419.398438 485.488281 C 420.96875 482.347656 429.089844 474.757812 429.871094 479.472656 C 430.601562 483.847656 426.371094 488.214844 425.761719 488.816406 C 426.066406 488.523438 427.332031 487.46875 429.480469 487.582031 C 431.96875 487.714844 430.136719 491.246094 430.136719 491.246094 C 432.359375 488.109375 438.511719 482.089844 440.476562 484.050781 C 442.441406 486.015625 436.941406 494.125 436.941406 494.125 C 440.476562 490.332031 448.59375 487.0625 449.785156 487.324219 C 450.976562 487.582031 451.082031 489.546875 448.460938 493.082031 C 445.84375 496.613281 442.308594 498.445312 442.308594 498.445312 C 442.308594 498.445312 449.378906 501.0625 449.773438 504.074219 C 450.164062 507.082031 441.132812 505.121094 441.132812 505.121094 C 444.144531 511.402344 434.847656 505.121094 434.847656 505.121094 C 434.847656 505.121094 438.644531 509.699219 435.242188 510.617188 C 431.835938 511.53125 426.992188 507.738281 426.992188 507.738281 C 426.992188 507.738281 430.164062 512.207031 426.714844 512.570312 C 424.113281 512.839844 422.804688 509.832031 422.804688 509.832031 C 422.804688 509.832031 422.28125 513.625 417.175781 514.148438 C 412.070312 514.671875 409.1875 510.617188 409.1875 510.617188 C 409.1875 510.617188 408.925781 512.578125 405.785156 513.757812 C 402.644531 514.933594 399.433594 511.007812 399.433594 511.007812 C 399.433594 511.007812 401.597656 516.898438 396.109375 516.503906 C 390.621094 516.113281 387.386719 511.664062 387.386719 511.664062 C 387.386719 511.664062 386.277344 516.113281 381.433594 515.851562 C 376.589844 515.589844 373.972656 511.269531 373.972656 511.269531 C 373.972656 511.269531 365.988281 515.066406 362.976562 514.933594 C 359.964844 514.804688 360.351562 511.140625 360.351562 511.140625 C 360.351562 511.140625 353.550781 513.757812 350.800781 512.1875 C 348.050781 510.617188 350.929688 508.390625 350.929688 508.390625 C 350.929688 508.390625 348.835938 509.960938 346.480469 508.390625 C 344.125 506.820312 347.003906 503.941406 347.003906 503.941406 C 347.003906 503.941406 342.03125 503.8125 342.683594 500.671875 C 343.269531 497.867188 348.121094 499.648438 349.15625 500.0625 "/></g><g clip-rule="nonzero" clip-path="url(#4f3beecb74)"><path style=" stroke:none;fill-rule:nonzero;fill:#428332;fill-opacity:1;" d="M 349.15625 500.0625 C 348.652344 499.839844 347.363281 499.097656 347.789062 497.398438 C 349.753906 500.539062 357.609375 499.566406 357.609375 499.566406 C 357.609375 499.566406 354.464844 503.679688 357.609375 504.832031 C 360.75 505.984375 365.332031 501.195312 365.332031 501.195312 C 365.332031 501.195312 362.714844 505.90625 366.378906 506.296875 C 370.046875 506.6875 373.972656 503.15625 373.972656 503.15625 C 373.972656 503.15625 372.402344 506.820312 375.542969 508.128906 C 378.683594 509.4375 383.53125 505.644531 383.53125 505.644531 C 383.53125 505.644531 383.921875 509.175781 386.410156 509.175781 C 388.898438 509.175781 389.027344 506.429688 389.027344 506.429688 C 389.027344 506.429688 390.859375 509.832031 394.132812 510.09375 C 397.40625 510.355469 396.109375 504.335938 396.109375 504.335938 C 396.109375 504.335938 396.882812 506.6875 399.433594 506.953125 C 401.984375 507.214844 402.773438 502.738281 402.773438 502.738281 C 402.773438 502.738281 403.953125 506.035156 408.925781 505.90625 C 413.902344 505.777344 415.339844 502.738281 415.339844 502.738281 C 415.339844 502.738281 416.78125 505.773438 419.140625 505.90625 C 421.496094 506.035156 421.757812 501.820312 421.757812 501.820312 C 421.757812 501.820312 424.898438 504.988281 428.957031 504.074219 C 433.015625 503.15625 431.835938 499.566406 431.835938 499.566406 C 431.835938 499.566406 434.457031 502.632812 435.765625 502.765625 C 437.074219 502.894531 435.765625 499.566406 435.765625 499.566406 C 435.765625 499.566406 440.347656 502.765625 443.75 502.765625 C 447.152344 502.765625 444.828125 499.566406 444.828125 499.566406 C 446.902344 500.609375 449.539062 502.265625 449.773438 504.074219 C 450.164062 507.082031 441.132812 505.121094 441.132812 505.121094 C 444.144531 511.402344 434.847656 505.121094 434.847656 505.121094 C 434.847656 505.121094 438.644531 509.699219 435.242188 510.617188 C 431.835938 511.53125 426.992188 507.738281 426.992188 507.738281 C 426.992188 507.738281 430.164062 512.207031 426.714844 512.570312 C 424.113281 512.839844 422.804688 509.832031 422.804688 509.832031 C 422.804688 509.832031 422.28125 513.625 417.175781 514.148438 C 412.070312 514.671875 409.1875 510.617188 409.1875 510.617188 C 409.1875 510.617188 408.925781 512.578125 405.785156 513.757812 C 402.644531 514.933594 399.433594 511.007812 399.433594 511.007812 C 399.433594 511.007812 401.597656 516.898438 396.109375 516.503906 C 390.621094 516.113281 387.386719 511.664062 387.386719 511.664062 C 387.386719 511.664062 386.277344 516.113281 381.433594 515.851562 C 376.589844 515.589844 373.972656 511.269531 373.972656 511.269531 C 373.972656 511.269531 365.988281 515.066406 362.976562 514.933594 C 359.964844 514.804688 360.351562 511.140625 360.351562 511.140625 C 360.351562 511.140625 353.550781 513.757812 350.800781 512.1875 C 348.050781 510.617188 350.929688 508.390625 350.929688 508.390625 C 350.929688 508.390625 348.835938 509.960938 346.480469 508.390625 C 344.125 506.820312 347.003906 503.941406 347.003906 503.941406 C 347.003906 503.941406 342.03125 503.8125 342.683594 500.671875 C 343.269531 497.867188 348.121094 499.648438 349.15625 500.0625 "/></g><path style=" stroke:none;fill-rule:nonzero;fill:#68c52f;fill-opacity:1;" d="M 349.753906 488.109375 C 355.90625 489.546875 358.394531 492.816406 358.394531 492.816406 C 358.394531 492.816406 356.824219 489.023438 358.394531 487.714844 C 359.964844 486.40625 363.628906 493.472656 363.628906 493.472656 C 363.628906 493.472656 363.5 491.117188 364.546875 489.546875 C 365.160156 488.625 367.84375 489.597656 369.960938 490.554688 C 364.957031 487.367188 360.894531 480.976562 361.011719 480.386719 C 361.273438 479.078125 363.628906 478.292969 369.914062 481.957031 C 375.960938 485.484375 379.863281 490.726562 379.863281 490.726562 C 379.863281 490.726562 374.101562 480.78125 378.554688 482.742188 C 380.785156 483.726562 382.820312 485.367188 384.296875 486.761719 C 378.59375 479.863281 375.457031 469.582031 375.804688 469 C 376.199219 468.347656 378.421875 467.300781 384.707031 473.582031 C 390.992188 479.863281 391.382812 489.808594 391.382812 489.808594 C 391.382812 489.808594 391.253906 484.445312 393.488281 483.917969 C 395.566406 483.433594 398.40625 488.703125 398.796875 489.453125 C 398.40625 488.699219 395.648438 483.203125 394.917969 477.246094 C 394.132812 470.832031 396.621094 462.511719 397.40625 462.457031 C 398.191406 462.40625 400.546875 462.457031 403.6875 471.75 C 406.734375 480.75 403.953125 489.023438 403.953125 489.023438 C 403.953125 489.023438 407.515625 479.445312 409.703125 480.78125 C 411.414062 481.824219 410.761719 488.359375 410.761719 488.359375 C 410.761719 488.359375 413.117188 481.171875 415.601562 476.328125 C 418.089844 471.488281 422.28125 468.347656 422.542969 473.972656 C 422.804688 479.601562 419.398438 485.488281 419.398438 485.488281 C 420.96875 482.347656 429.089844 474.757812 429.871094 479.472656 C 430.601562 483.847656 426.371094 488.214844 425.761719 488.816406 C 426.066406 488.523438 427.332031 487.46875 429.480469 487.582031 C 431.96875 487.714844 430.136719 491.246094 430.136719 491.246094 C 432.359375 488.109375 438.511719 482.089844 440.476562 484.050781 C 442.441406 486.015625 436.941406 494.125 436.941406 494.125 C 440.476562 490.332031 448.59375 487.0625 449.785156 487.324219 C 450.976562 487.582031 451.082031 489.546875 448.460938 493.082031 C 448.460938 493.082031 449.34375 491.03125 447.546875 490.59375 C 445.257812 490.039062 435.960938 497.070312 435.960938 497.070312 C 435.960938 497.070312 435.28125 494.230469 433.617188 493.734375 C 431.640625 493.144531 428.5625 496.480469 428.5625 496.480469 C 428.5625 496.480469 428.828125 492.816406 427.386719 492.6875 C 425.945312 492.554688 424.113281 495.699219 424.113281 495.699219 C 424.113281 495.699219 424.507812 490.34375 422.28125 489.488281 C 420.054688 488.632812 418.222656 495.304688 418.222656 495.304688 C 418.222656 495.304688 416.355469 490.496094 414.03125 490.953125 C 411.085938 491.535156 410.238281 495.433594 410.238281 495.433594 C 410.238281 495.433594 409.1875 491.640625 407.226562 492.035156 C 405.261719 492.425781 403.558594 495.828125 403.558594 495.828125 C 403.558594 495.828125 402.511719 492.816406 399.894531 492.6875 C 397.277344 492.554688 396.109375 496.742188 396.109375 496.742188 C 396.109375 496.742188 395.59375 492.6875 393.488281 492.164062 C 391.382812 491.640625 392.167969 496.742188 392.167969 496.742188 C 392.167969 496.742188 389.027344 491.640625 385.625 491.378906 C 382.21875 491.117188 385.101562 497.398438 385.101562 497.398438 C 385.101562 497.398438 382.902344 495.8125 379.339844 493.863281 C 377.769531 493.007812 376.066406 493.007812 375.871094 493.667969 C 375.617188 494.523438 376.234375 495.632812 377.640625 497.203125 C 376.121094 496.523438 373.578125 494.421875 371.617188 494.65625 C 368.34375 495.050781 368.082031 497.398438 368.082031 497.398438 C 368.082031 497.398438 363.5 494.390625 362.058594 495.304688 C 360.617188 496.222656 362.058594 500.015625 362.058594 500.015625 C 362.058594 500.015625 349.492188 486.535156 341.636719 488.890625 C 341.898438 488.238281 343.601562 486.667969 349.753906 488.109375 "/><path style=" stroke:none;fill-rule:nonzero;fill:#68c52f;fill-opacity:1;" d="M 434.457031 497.660156 C 436.347656 494.957031 442.148438 493.34375 443.167969 494.929688 C 444.128906 496.421875 440.28125 498.804688 440.28125 498.804688 C 440.28125 498.804688 441.425781 497.660156 440.609375 496.734375 C 439.722656 495.734375 434.457031 497.660156 434.457031 497.660156 "/><path style=" stroke:none;fill-rule:nonzero;fill:#68c52f;fill-opacity:1;" d="M 419.726562 498.804688 C 419.726562 498.804688 422.082031 496.253906 419.726562 493.703125 C 417.371094 491.148438 413.148438 496.253906 412.855469 498.804688 C 412.855469 498.804688 419.140625 493.113281 419.726562 498.804688 "/><path style=" stroke:none;fill-rule:nonzero;fill:#68c52f;fill-opacity:1;" d="M 391.515625 500.605469 C 391.515625 500.605469 387.199219 493.96875 383.203125 494.714844 C 379.203125 495.464844 382.808594 501.0625 382.808594 501.0625 C 382.808594 501.0625 382.351562 498.804688 384.871094 498.148438 C 387.625 497.429688 391.515625 500.605469 391.515625 500.605469 "/><g style="fill:#006032;fill-opacity:1;"><g transform="translate(199.351546, 588.528446)"><path style="stroke:none" d="M 39.078125 0 L 39.078125 -51.484375 L 50.234375 -51.484375 L 50.234375 0 Z M 5.53125 0 L 5.53125 -51.484375 L 16.765625 -51.484375 L 16.765625 0 Z M 12.25 -21.453125 L 12.25 -30.65625 L 43.609375 -30.65625 L 43.609375 -21.453125 Z M 12.25 -21.453125 "/></g></g><g style="fill:#006032;fill-opacity:1;"><g transform="translate(255.12159, 588.528446)"><path style="stroke:none" d="M 1.328125 0 L 18.875 -51.484375 L 35.171875 -51.484375 L 52.8125 0 L 40.5625 0 L 27.609375 -42.59375 L 26.515625 -42.59375 L 13.5 0 Z M 11.15625 -10.0625 L 11.15625 -17.78125 L 44.53125 -17.78125 L 44.53125 -10.0625 Z M 11.15625 -10.0625 "/></g></g><g style="fill:#006032;fill-opacity:1;"><g transform="translate(309.25364, 588.528446)"><path style="stroke:none" d="M 5.53125 0 L 5.53125 -51.484375 L 26.4375 -51.484375 C 28.9375 -51.484375 31.273438 -51.285156 33.453125 -50.890625 C 35.640625 -50.503906 37.628906 -49.921875 39.421875 -49.140625 C 41.222656 -48.359375 42.785156 -47.367188 44.109375 -46.171875 C 45.429688 -44.972656 46.429688 -43.554688 47.109375 -41.921875 C 47.785156 -40.285156 48.125 -38.425781 48.125 -36.34375 C 48.125 -34.53125 47.847656 -32.894531 47.296875 -31.4375 C 46.753906 -29.976562 45.910156 -28.6875 44.765625 -27.5625 C 43.628906 -26.445312 42.1875 -25.539062 40.4375 -24.84375 C 38.695312 -24.144531 36.679688 -23.664062 34.390625 -23.40625 L 34.390625 -22.3125 C 37.046875 -22 39.179688 -21.375 40.796875 -20.4375 C 42.410156 -19.5 43.671875 -18.222656 44.578125 -16.609375 C 45.484375 -15.003906 46.273438 -13.003906 46.953125 -10.609375 L 50 0 L 37.59375 0 L 35.25 -9.75 C 34.78125 -11.832031 34.101562 -13.46875 33.21875 -14.65625 C 32.34375 -15.851562 31.238281 -16.6875 29.90625 -17.15625 C 28.582031 -17.625 26.984375 -17.859375 25.109375 -17.859375 L 16.765625 -17.859375 L 16.765625 0 Z M 16.765625 -26.359375 L 24.03125 -26.359375 C 24.90625 -26.359375 25.890625 -26.382812 26.984375 -26.4375 C 28.078125 -26.488281 29.179688 -26.644531 30.296875 -26.90625 C 31.421875 -27.164062 32.4375 -27.582031 33.34375 -28.15625 C 34.25 -28.726562 35 -29.535156 35.59375 -30.578125 C 36.195312 -31.617188 36.5 -32.941406 36.5 -34.546875 C 36.5 -36.210938 36.210938 -37.566406 35.640625 -38.609375 C 35.066406 -39.648438 34.335938 -40.457031 33.453125 -41.03125 C 32.578125 -41.601562 31.644531 -42.019531 30.65625 -42.28125 C 29.664062 -42.539062 28.726562 -42.695312 27.84375 -42.75 C 26.957031 -42.800781 26.253906 -42.828125 25.734375 -42.828125 L 16.765625 -42.828125 Z M 16.765625 -26.359375 "/></g></g><g style="fill:#006032;fill-opacity:1;"><g transform="translate(361.747687, 588.528446)"><path style="stroke:none" d="M 5.53125 0 L 5.53125 -51.484375 L 16.921875 -51.484375 L 16.921875 0 Z M 5.53125 0 "/></g></g><g style="fill:#006032;fill-opacity:1;"><g transform="translate(384.211705, 588.528446)"><path style="stroke:none" d="M 16.375 0 L 16.375 -51.484375 L 27.6875 -51.484375 L 27.6875 0 Z M 1.40625 -42.046875 L 1.40625 -51.484375 L 42.75 -51.484375 L 42.75 -42.046875 Z M 1.40625 -42.046875 "/></g></g><g style="fill:#006032;fill-opacity:1;"><g transform="translate(428.359759, 588.528446)"><path style="stroke:none" d="M 39.078125 0 L 39.078125 -51.484375 L 50.234375 -51.484375 L 50.234375 0 Z M 5.53125 0 L 5.53125 -51.484375 L 16.765625 -51.484375 L 16.765625 0 Z M 12.25 -21.453125 L 12.25 -30.65625 L 43.609375 -30.65625 L 43.609375 -21.453125 Z M 12.25 -21.453125 "/></g></g><g style="fill:#006032;fill-opacity:1;"><g transform="translate(484.129791, 588.528446)"><path style="stroke:none" d="M 1.328125 0 L 18.875 -51.484375 L 35.171875 -51.484375 L 52.8125 0 L 40.5625 0 L 27.609375 -42.59375 L 26.515625 -42.59375 L 13.5 0 Z M 11.15625 -10.0625 L 11.15625 -17.78125 L 44.53125 -17.78125 L 44.53125 -10.0625 Z M 11.15625 -10.0625 "/></g></g><g style="fill:#006032;fill-opacity:1;"><g transform="translate(538.261852, 588.528446)"><path style="stroke:none" d="M 5.53125 0 L 5.53125 -51.484375 L 22.390625 -51.484375 L 36.5 -12.71875 L 36.890625 -12.71875 L 50.78125 -51.484375 L 66.921875 -51.484375 L 66.921875 0 L 56.234375 0 L 56.859375 -40.09375 L 56.078125 -40.09375 L 40.796875 0 L 31.28125 0 L 16.140625 -40.09375 L 15.359375 -40.09375 L 15.984375 0 Z M 5.53125 0 "/></g></g></g></svg>